<!DOCTYPE svg PUBLIC "-//W3C//DTD SVG 1.1//EN" "http://www.w3.org/Graphics/SVG/1.1/DTD/svg11.dtd">

<!-- Upload#06C167SVG Repo, www.svgrepo.com, Transformed by: SVG Repo Mixer Tools -->#06C167
<svg fill="#06C167" height="800px" width="800px" version="1.1" id="Capa_1" xmlns="http://www.w3.org/2000/svg" xmlns:xlink="http://www.w3.org/1999/xlink" viewBox="0 0 433.48 433.48" xml:space="preserve" stroke="#06C167">

<g id="SVGRepo_bgCarrier" stroke-width="0"/>

<g id="SVGRepo_tracerCarrier" stroke-linecap="round" stroke-linejoin="round"/>

<g id="SVGRepo_iconCarrier"> <g> <g> <path d="M110.183,362.846c-12.915,0-23.422,10.508-23.422,23.423s10.507,23.422,23.422,23.422s23.422-10.507,23.422-23.422 S123.098,362.846,110.183,362.846z M110.183,394.69c-4.644,0-8.422-3.778-8.422-8.422c0-4.645,3.778-8.423,8.422-8.423 s8.422,3.778,8.422,8.423C118.605,390.912,114.827,394.69,110.183,394.69z"/> <path d="M279.804,362.846c-12.915,0-23.422,10.508-23.422,23.423s10.507,23.422,23.422,23.422 c12.915,0,23.422-10.507,23.422-23.422S292.719,362.846,279.804,362.846z M279.804,394.69c-4.644,0-8.422-3.778-8.422-8.422 c0-4.645,3.778-8.423,8.422-8.423c4.644,0,8.422,3.778,8.422,8.423C288.226,390.912,284.448,394.69,279.804,394.69z"/> <path d="M389.234,202.388h-18.102c-1.989,0-3.896,0.79-5.303,2.196l-23.198,23.197h-20.894v-110.97h23.999 c2.558,0,4.938-1.303,6.317-3.457s1.564-4.862,0.493-7.185l-28.38-61.521c-1.226-2.657-3.884-4.358-6.81-4.358h-21.868V7.5 c0-4.143-3.358-7.5-7.5-7.5h-185.99c-4.142,0-7.5,3.357-7.5,7.5v32.791H72.627c-2.926,0-5.584,1.701-6.811,4.358l-28.38,61.521 c-1.071,2.322-0.885,5.03,0.493,7.185c1.379,2.154,3.76,3.457,6.317,3.457h24.002v110.97H44.247c-4.142,0-7.5,3.357-7.5,7.5v141.2 c0,4.143,3.358,7.5,7.5,7.5H63.03c-0.036,0.758-0.058,1.52-0.058,2.287c0,26.032,21.179,47.211,47.211,47.211 c26.033,0,47.211-21.179,47.211-47.211c0-0.767-0.022-1.529-0.058-2.287h75.314c-0.036,0.758-0.058,1.52-0.058,2.287 c0,26.032,21.179,47.211,47.211,47.211s47.211-21.179,47.211-47.211c0-0.767-0.022-1.529-0.058-2.287h18.78 c4.142,0,7.5-3.357,7.5-7.5V238.39l21.002-21.002h14.995c4.142,0,7.5-3.357,7.5-7.5S393.376,202.388,389.234,202.388z M109.498,15 h170.99v32.752c0,0.013-0.002,0.026-0.002,0.039s0.002,0.026,0.002,0.039v12.167h-170.99V15z M77.427,55.291h17.072v12.206 c0,4.143,3.358,7.5,7.5,7.5h185.99c4.142,0,7.5-3.357,7.5-7.5V55.291h17.068l21.46,46.521H55.966L77.427,55.291z M274.793,150.578 c0,2.849-2.318,5.166-5.167,5.166c-2.849,0-5.167-2.317-5.167-5.166s2.318-5.167,5.167-5.167S274.793,147.729,274.793,150.578z M83.249,116.812h178.878v15.061c-7.413,2.984-12.667,10.237-12.667,18.705c0,11.119,9.047,20.166,20.167,20.166 s20.167-9.047,20.167-20.166c0-8.469-5.253-15.721-12.667-18.705v-15.061h29.611v110.97h-126.97v-38.203 c0-8.282-5.107-15.386-12.333-18.351v-5.983c0-4.143-3.358-7.5-7.5-7.5s-7.5,3.357-7.5,7.5v5.983 c-7.226,2.965-12.333,10.069-12.333,18.351v38.203h-6.975v-38.203c0-8.282-5.107-15.386-12.333-18.351v-5.983 c0-4.143-3.358-7.5-7.5-7.5s-7.5,3.357-7.5,7.5v5.983c-7.226,2.965-12.333,10.069-12.333,18.351v38.203H83.249V116.812z M155.102,189.578c0-2.665,2.168-4.834,4.833-4.834c2.665,0,4.833,2.169,4.833,4.834v38.203h-9.667v-38.203H155.102z M108.46,189.578c0-2.665,2.168-4.834,4.833-4.834s4.833,2.169,4.833,4.834v38.203h-9.667L108.46,189.578L108.46,189.578z M338.237,242.781v10.706H51.747v-10.706H338.237z M110.183,418.479c-17.761,0-32.211-14.45-32.211-32.211 s14.45-32.211,32.211-32.211s32.211,14.45,32.211,32.211S127.944,418.479,110.183,418.479z M279.804,418.479 c-17.761,0-32.211-14.45-32.211-32.211s14.45-32.211,32.211-32.211c17.761,0,32.211,14.45,32.211,32.211 S297.565,418.479,279.804,418.479z M323.723,368.981c-6.914-17.503-23.987-29.924-43.918-29.924s-37.005,12.421-43.919,29.924 h-81.783c-6.914-17.503-23.987-29.924-43.919-29.924c-19.931,0-37.004,12.421-43.918,29.924H51.747V268.487h286.49v100.494 L323.723,368.981L323.723,368.981z"/> <path d="M260.832,285.321h-13.801c-4.49-3.939-10.365-6.335-16.793-6.335h-70.497c-6.428,0-12.304,2.396-16.793,6.335h-13.806 c-5.119,0-9.929,1.991-13.543,5.606c-3.622,3.622-5.617,8.436-5.617,13.554c0,10.57,8.595,19.17,19.16,19.17h13.808 c4.489,3.938,10.364,6.333,16.791,6.333h70.497c6.427,0,12.302-2.395,16.791-6.333h13.803c5.136,0,9.954-1.999,13.541-5.604 c3.63-3.613,5.629-8.431,5.629-13.565C280.002,293.916,271.402,285.321,260.832,285.321z M124.982,304.481 c0-1.111,0.435-2.158,1.224-2.947c0.453-0.453,1.437-1.213,2.937-1.213h5.446c-0.224,1.356-0.346,2.746-0.346,4.164 c0,1.419,0.122,2.809,0.346,4.166h-5.446C126.848,308.651,124.982,306.78,124.982,304.481z M159.741,314.984 c-5.789,0-10.499-4.71-10.499-10.499s4.71-10.499,10.499-10.499h70.497c5.789,0,10.499,4.71,10.499,10.499 s-4.71,10.499-10.499,10.499H159.741z M263.766,307.441c-0.777,0.78-1.819,1.21-2.934,1.21h-5.441 c0.224-1.357,0.346-2.747,0.346-4.166c0-1.418-0.122-2.808-0.346-4.164h5.441c2.299,0,4.17,1.866,4.17,4.16 C265.002,305.597,264.572,306.639,263.766,307.441z"/> </g> </g> </g>

</svg>