<?xml version="1.0" encoding="UTF-8"?>
<svg version="1.1" xmlns="http://www.w3.org/2000/svg" width="384" height="384">
<path d="M0 0 C5.49473181 4.53877701 10.38265349 9.66484325 15.31835938 14.79541016 C17.3888464 16.94625491 19.46953217 19.08648612 21.55664062 21.22119141 C22.46067627 22.16003174 23.36471191 23.09887207 24.29614258 24.06616211 C29.90753386 29.07086184 34.51193531 29.92325408 41.73632812 29.92431641 C42.56739578 29.93752426 43.39846344 29.95073212 44.25471497 29.96434021 C46.90096343 30.00503408 49.54687033 30.02682221 52.19335938 30.04541016 C86.88481139 30.36186217 86.88481139 30.36186217 98.00585938 41.48291016 C106.92817418 52.68071464 109.10753789 62.49443853 109.18164062 76.54931641 C109.20482217 78.26872992 109.22893881 79.98813103 109.25390625 81.70751953 C109.28905262 84.38233003 109.31841569 87.05667555 109.33178711 89.73168945 C109.34731719 92.33811438 109.38752563 94.94323852 109.43164062 97.54931641 C109.428778 98.73709435 109.428778 98.73709435 109.42585754 99.9488678 C109.5966646 107.76327772 112.5625092 112.41696553 118.11679077 117.85678101 C118.87785629 118.580504 118.87785629 118.580504 119.65429688 119.31884766 C120.18930817 119.84249908 120.72431946 120.36615051 121.27554321 120.90567017 C123.53630065 123.11800662 125.81456014 125.31197442 128.09179688 127.50732422 C139.01086336 138.06787297 147.76617343 147.52955473 148.31835938 163.60791016 C146.93685253 180.73859504 138.2298027 189.79730052 126.31835938 201.23291016 C124.45833208 203.02458428 122.60174957 204.81930156 120.75419617 206.62384033 C119.6130934 207.73796548 118.46488181 208.84487383 117.3084259 209.9430542 C112.06015132 215.05898182 109.69352893 219.59782896 109.56480408 226.97917175 C109.56468826 227.78864761 109.56457245 228.59812347 109.56445312 229.43212891 C109.55124527 230.28539261 109.53803741 231.13865631 109.52442932 232.01777649 C109.48372404 234.73535383 109.46194312 237.45259833 109.44335938 240.17041016 C109.18577419 269.18386849 109.18577419 269.18386849 104.13085938 276.85791016 C103.59332031 277.67517578 103.05578125 278.49244141 102.50195312 279.33447266 C102.00824219 280.04345703 101.51453125 280.75244141 101.00585938 281.48291016 C100.40773438 282.39041016 99.80960937 283.29791016 99.19335938 284.23291016 C91.48885265 292.15754564 81.67400971 296.40217259 70.68798828 296.62475586 C69.03615881 296.63937966 67.38429581 296.6505097 65.73242188 296.65869141 C63.91991022 296.68188631 62.10741017 296.70600351 60.29492188 296.73095703 C57.46215979 296.7660354 54.62982779 296.79541504 51.796875 296.80883789 C49.04570679 296.82439338 46.29576275 296.86463824 43.54492188 296.90869141 C42.70820953 296.90678299 41.87149719 296.90487457 41.00942993 296.90290833 C32.80353688 297.07187594 27.088215 299.89562878 21.39187622 305.74630737 C20.89581879 306.27555817 20.39976135 306.80480896 19.88867188 307.35009766 C19.34661102 307.90730499 18.80455017 308.46451233 18.24606323 309.03860474 C15.95794826 311.39123044 13.69453215 313.76706463 11.42919922 316.14160156 C0.80768518 327.22878336 -8.43265645 335.32943109 -24.36914062 335.79541016 C-42.08251361 335.40767503 -52.67072693 324.25945296 -64.24414062 312.17041016 C-64.76298828 311.62698975 -65.28183594 311.08356934 -65.81640625 310.52368164 C-67.35137832 308.92204438 -68.89865586 307.33306697 -70.44726562 305.74462891 C-71.34606445 304.80578857 -72.24486328 303.86694824 -73.17089844 302.8996582 C-79.17031648 297.7640443 -84.76949221 297.04255575 -92.33007812 297.04150391 C-93.20886627 297.02829605 -94.08765442 297.0150882 -94.99307251 297.0014801 C-97.7851276 296.96082903 -100.57685809 296.93899641 -103.36914062 296.92041016 C-106.15418045 296.89648453 -108.93892096 296.86812655 -111.7237854 296.82862854 C-113.45005898 296.80461496 -115.17648875 296.78947883 -116.90292358 296.78501892 C-128.69939474 296.634355 -137.89087596 293.33364858 -146.74414062 285.35791016 C-155.1672654 276.39586508 -157.11154574 265.99552205 -157.16992188 254.20947266 C-157.19311678 252.396961 -157.21723398 250.58446095 -157.2421875 248.77197266 C-157.27726587 245.93921057 -157.30664551 243.10687858 -157.32006836 240.27392578 C-157.33562385 237.52275758 -157.37586871 234.77281353 -157.41992188 232.02197266 C-157.41801346 231.18526031 -157.41610504 230.34854797 -157.41413879 229.48648071 C-157.58033914 221.41497971 -160.30850776 215.65831133 -166.079422 210.04704285 C-166.58366196 209.57599625 -167.08790192 209.10494965 -167.60742188 208.61962891 C-168.14006149 208.10213577 -168.67270111 207.58464264 -169.22148132 207.0514679 C-171.467455 204.86988254 -173.73653434 202.71297429 -176.00463867 200.55444336 C-187.19144455 189.86100597 -195.81901517 180.16204061 -196.30664062 164.10791016 C-195.96350646 146.628252 -185.33682649 135.69377708 -173.48242188 124.02197266 C-172.27054199 122.82592407 -172.27054199 122.82592407 -171.03417969 121.60571289 C-169.40177323 120.0011352 -167.76194207 118.404071 -166.11425781 116.81518555 C-165.3540332 116.07002686 -164.59380859 115.32486816 -163.81054688 114.55712891 C-163.12420166 113.89285889 -162.43785645 113.22858887 -161.73071289 112.54418945 C-157.54269481 107.57308912 -157.68923705 102.54629573 -157.65039062 96.34228516 C-157.63576782 95.46066711 -157.62114502 94.57904907 -157.6060791 93.67071533 C-157.55971385 90.85815955 -157.52546313 88.0456712 -157.49414062 85.23291016 C-157.45270402 81.53995235 -157.39887392 77.84746619 -157.33789062 74.15478516 C-157.33261353 73.32009705 -157.32733643 72.48540894 -157.32189941 71.62542725 C-157.12435716 59.78505302 -153.79777924 50.00778639 -145.79492188 41.11572266 C-135.95583281 32.19437943 -124.5650292 30.37209947 -111.77148438 30.30712891 C-109.99868583 30.28394663 -108.22589931 30.25982996 -106.453125 30.23486328 C-103.68603227 30.19969983 -100.91938921 30.17035097 -98.15209961 30.15698242 C-95.46219194 30.14148069 -92.77355458 30.1012861 -90.08398438 30.05712891 C-88.85094826 30.05999153 -88.85094826 30.05999153 -87.59300232 30.06291199 C-79.46008602 29.89047392 -75.27247051 26.03982511 -69.72851562 20.30712891 C-68.7455716 19.30374741 -67.76249437 18.3004964 -66.77929688 17.29736328 C-65.26530315 15.74018926 -63.75394703 14.18056964 -62.24560547 12.61791992 C-44.56969882 -5.64602492 -23.08879944 -17.32442629 0 0 Z M-38.41601562 24.81494141 C-39.45234524 25.87170828 -40.48880788 26.92834471 -41.52539062 27.98486328 C-43.13163849 29.63434501 -44.73528279 31.28625208 -46.3359375 32.94116211 C-56.90563192 43.84238433 -68.3302756 54.2715488 -84.32202148 54.640625 C-86.03430063 54.66202442 -87.74663125 54.67954393 -89.45898438 54.69384766 C-91.32943595 54.72190882 -93.19987855 54.75057323 -95.0703125 54.77978516 C-98.00414853 54.82105489 -100.93781564 54.85796553 -103.87182617 54.88427734 C-106.71372515 54.91194037 -109.55487557 54.9577989 -112.39648438 55.00634766 C-113.26853012 55.00960052 -114.14057587 55.01285339 -115.03904724 55.01620483 C-120.05706147 55.11705743 -123.74892754 55.52709988 -127.99414062 58.48291016 C-132.35574237 63.35296406 -132.55946969 67.39867572 -132.49804688 73.61572266 C-132.50746811 74.48881073 -132.51688934 75.3618988 -132.52659607 76.26144409 C-132.55515247 79.04383919 -132.55833022 81.82538084 -132.55664062 84.60791016 C-132.59358525 112.67597401 -139.47814495 126.00295644 -159.14575195 145.6472168 C-160.78098562 147.2740572 -162.42008931 148.89701783 -164.06323242 150.51586914 C-164.81644775 151.2603833 -165.56966309 152.00489746 -166.34570312 152.77197266 C-167.02455566 153.43922363 -167.7034082 154.10647461 -168.40283203 154.79394531 C-170.93819114 157.48489565 -171.24690435 159.49155767 -171.43164062 163.10791016 C-171.49222656 163.92517578 -171.5528125 164.74244141 -171.61523438 165.58447266 C-169.51613562 175.38026683 -158.41520468 183.12171438 -151.37109375 189.76318359 C-140.5402958 200.00977487 -133.26585416 210.80256362 -132.72290039 226.18896484 C-132.70193015 227.84415228 -132.68979091 229.49947033 -132.68554688 231.15478516 C-132.6604148 232.971195 -132.63501642 234.78760118 -132.609375 236.60400391 C-132.58054499 239.43033095 -132.5564844 242.2565949 -132.5378418 245.08300781 C-132.51619336 247.83640333 -132.47679303 250.58912368 -132.43554688 253.34228516 C-132.43543106 254.18507019 -132.43531525 255.02785522 -132.43519592 255.8961792 C-132.33939019 261.58058025 -131.25736696 264.84247944 -127.49414062 269.23291016 C-123.70861264 272.38751681 -118.80225676 271.65362431 -114.15429688 271.69384766 C-112.35025185 271.72194898 -110.54621553 271.7506136 -108.7421875 271.77978516 C-105.91203362 271.82077006 -103.08203644 271.85767143 -100.25170898 271.88427734 C-80.07928913 272.09013647 -66.35954001 274.63325004 -51.81668091 289.36160278 C-50.09855233 291.1250841 -48.38915565 292.89665428 -46.68164062 294.67041016 C-44.94975352 296.45782967 -43.21486195 298.24206847 -41.47383118 300.02058411 C-40.39955946 301.11907553 -39.3306731 302.22286943 -38.26823425 303.33280945 C-34.08332458 307.629759 -30.33843662 310.88909027 -24.18164062 311.10791016 C-20.21497437 310.90730512 -18.22833146 310.30848187 -15.31835938 307.60400391 C-14.63265869 306.96914063 -13.94695801 306.33427734 -13.24047852 305.68017578 C-8.04310669 300.59634289 -2.97830041 295.38131733 2.05273438 290.13330078 C12.21414405 279.77074883 23.48786611 272.6396835 38.35546875 272.34106445 C40.02015654 272.32644559 41.68487752 272.31531322 43.34960938 272.30712891 C45.17123566 272.28394198 46.9928503 272.25982511 48.81445312 272.23486328 C51.66495726 272.19971739 54.51502779 272.17036711 57.36572266 272.15698242 C60.13170608 272.1414807 62.896454 272.10127807 65.66210938 272.05712891 C66.50914429 272.05903732 67.3561792 272.06094574 68.22888184 272.06291199 C73.5870366 271.95260298 76.86618966 271.20216893 81.00585938 267.48291016 C84.4504389 262.52062665 84.41925004 257.98359266 84.37695312 252.16650391 C84.39435104 250.33121573 84.41193523 248.49592931 84.4296875 246.66064453 C84.43969796 243.7998504 84.44337066 240.93917994 84.44165039 238.07836914 C84.46875604 217.23412776 88.27217012 204.10257352 103.22070312 189.01025391 C105.44780513 186.79934721 107.69401743 184.60865489 109.94335938 182.42041016 C111.66490955 180.73401823 113.3842073 179.04540915 115.10096741 177.35414124 C116.15949328 176.31250774 117.22108961 175.27398288 118.28611755 174.23899841 C122.27728256 170.32989498 123.10499684 168.46671724 123.43164062 162.84619141 C122.27377406 156.41950085 117.77049847 151.87353165 113.17382812 147.60400391 C112.03327194 146.50630125 110.89331742 145.40797316 109.75390625 144.30908203 C107.98400818 142.61909127 106.20922068 140.93525676 104.42260742 139.26293945 C94.9462989 130.3562379 85.57264689 120.24355024 84.90895081 106.47209167 C84.84373913 103.98715867 84.81568552 101.50376121 84.79492188 99.01806641 C84.76686071 97.14761484 84.7381963 95.27717223 84.70898438 93.40673828 C84.66771464 90.47290225 84.630804 87.53923514 84.60449219 84.60522461 C84.57682916 81.76332564 84.53097063 78.92217521 84.48242188 76.08056641 C84.47754257 74.77249779 84.47754257 74.77249779 84.4725647 73.43800354 C84.37104363 68.38672868 83.80226143 64.85800751 81.00585938 60.48291016 C77.16046454 56.92591994 74.19140402 55.37302575 68.96850586 55.32519531 C68.16013779 55.31493317 67.35176971 55.30467102 66.51890564 55.2940979 C65.21113914 55.2831459 65.21113914 55.2831459 63.87695312 55.27197266 C62.01822069 55.24388203 60.15949686 55.21521744 58.30078125 55.18603516 C55.380457 55.14496237 52.4602895 55.1080639 49.53979492 55.08154297 C46.71434511 55.05367999 43.88961789 55.00778903 41.06445312 54.95947266 C40.20677841 54.95621979 39.3491037 54.95296692 38.46543884 54.94961548 C20.41783911 54.58958053 9.5428963 44.60463462 -2.30664062 32.29541016 C-4.03852773 30.50799064 -5.7734193 28.72375184 -7.51445007 26.94523621 C-8.58872179 25.84674478 -9.65760815 24.74295089 -10.720047 23.63301086 C-14.02071739 20.24397376 -17.28331772 17.00659185 -22.05664062 16.08447266 C-23.01570313 16.09607422 -23.01570313 16.09607422 -23.99414062 16.10791016 C-24.63351563 16.10017578 -25.27289063 16.09244141 -25.93164062 16.08447266 C-31.23320203 17.10863793 -34.81532531 21.06336891 -38.41601562 24.81494141 Z " fill="#282D32" transform="translate(215.994140625,28.51708984375)"/>
<path d="M0 0 C3.8026029 2.0050088 5.61790841 3.42686262 8 7 C8.84324596 10.50816067 8.74131191 13.47564881 8 17 C6.29147816 19.3860321 6.29147816 19.3860321 4.03901672 21.7487793 C2.80884795 23.05170425 2.80884795 23.05170425 1.55382729 24.38095093 C0.28968278 25.67738022 0.28968278 25.67738022 -1 27 C-1.74905924 27.77526031 -2.49811848 28.55052063 -3.26987648 29.34927368 C-5.60014249 31.73603874 -7.9524302 34.0990102 -10.31176758 36.45703125 C-11.63546356 37.78576515 -11.63546356 37.78576515 -12.98590088 39.14134216 C-15.37413538 41.53737011 -17.76455536 43.93116916 -20.15636659 46.32362366 C-21.65370472 47.82167786 -23.15032646 49.32044404 -24.64670372 50.81945801 C-29.87483437 56.05679263 -35.10549266 61.29158698 -40.33862305 66.52392578 C-45.20743792 71.39213711 -50.07061438 76.26593196 -54.93125612 81.14230251 C-59.11983155 85.34394603 -63.31224569 89.54173282 -67.50768012 93.73652744 C-70.00723303 96.2358257 -72.5052165 98.7366442 -74.99933815 101.24136353 C-77.77238744 104.02587915 -80.55339556 106.80235969 -83.33520508 109.578125 C-84.56880013 110.82014931 -84.56880013 110.82014931 -85.82731628 112.08726501 C-86.58549652 112.84125076 -87.34367676 113.59523651 -88.12483215 114.37207031 C-88.78052091 115.02830383 -89.43620966 115.68453735 -90.11176777 116.36065674 C-94.10783756 119.83000229 -97.5702261 120.48841174 -102.7421875 120.39453125 C-106.59075968 119.72202988 -108.33977988 117.79323112 -111 115 C-112.13557238 112.72885524 -112.23084318 111.27706381 -112.3125 108.75 C-112.36857422 107.62851563 -112.36857422 107.62851563 -112.42578125 106.484375 C-111.15997242 99.09855468 -103.82266678 93.54749964 -98.78100586 88.53808594 C-97.84889786 87.60407959 -96.91678986 86.67007324 -95.95643616 85.70776367 C-93.41152169 83.15802278 -90.86043563 80.61454177 -88.30802608 78.07230663 C-85.63422643 75.4073191 -82.96572891 72.73703195 -80.29652405 70.06744385 C-75.81689008 65.58874479 -71.33340922 61.11392661 -66.84741211 56.64160156 C-61.66125196 51.47118905 -56.48035943 46.29554606 -51.30243391 41.11688781 C-45.78525541 35.59903404 -40.26427773 30.08499377 -34.74217153 24.57207203 C-33.15216764 22.98419913 -31.56287533 21.39561696 -29.97373772 19.80687714 C-27.01535365 16.84968359 -24.05273214 13.89677147 -21.08959961 10.94433594 C-20.20899872 10.06328186 -19.32839783 9.18222778 -18.42111206 8.2744751 C-17.61500992 7.47263794 -16.80890778 6.67080078 -15.9783783 5.84466553 C-15.27840194 5.14636501 -14.57842558 4.4480645 -13.85723782 3.72860336 C-9.39590059 -0.42373645 -5.8560165 -0.82943578 0 0 Z " fill="#282D31" transform="translate(244,132)"/>
<path d="M0 0 C3.76077207 1.88444735 6.33550585 4.52257419 8.21484375 8.28125 C9.81735376 13.31771004 9.72189655 18.38690355 7.62109375 23.21875 C4.04893205 27.55637492 1.06999681 30.87836594 -4.6796875 31.71484375 C-10.36638507 31.85158188 -14.34582031 31.61474006 -18.7578125 27.81640625 C-22.93238138 23.33261005 -23.73499488 18.81811956 -23.546875 12.87890625 C-22.67627623 7.59835857 -19.82450575 3.93960835 -16.00390625 0.34375 C-10.82354511 -1.45811474 -5.26916845 -1.62425743 0 0 Z " fill="#282D32" transform="translate(239.12890625,216.65625)"/>
<path d="M0 0 C3.76077207 1.88444735 6.33550585 4.52257419 8.21484375 8.28125 C9.81735376 13.31771004 9.72189655 18.38690355 7.62109375 23.21875 C4.04893205 27.55637492 1.06999681 30.87836594 -4.6796875 31.71484375 C-10.36638507 31.85158188 -14.34582031 31.61474006 -18.7578125 27.81640625 C-22.93238138 23.33261005 -23.73499488 18.81811956 -23.546875 12.87890625 C-22.67627623 7.59835857 -19.82450575 3.93960835 -16.00390625 0.34375 C-10.82354511 -1.45811474 -5.26916845 -1.62425743 0 0 Z " fill="#282D32" transform="translate(159.12890625,136.65625)"/>
</svg>
