<?xml version="1.0" encoding="UTF-8"?>
<svg version="1.1" xmlns="http://www.w3.org/2000/svg" width="384" height="384">
<path d="M0 0 C1.05445313 0.35578125 2.10890625 0.7115625 3.1953125 1.078125 C22.00413919 7.77199314 39.18839894 18.31865777 53.76171875 31.9140625 C55.85454366 33.86444383 58.00298541 35.71631367 60.1875 37.5625 C89.99682793 63.74957892 106.02049146 105.59483808 108.75 144.34375 C109.86216726 164.96162005 108.4294072 190.1411856 99 209 C100.06347656 209.03738281 101.12695312 209.07476562 102.22265625 209.11328125 C106.85723169 209.29358966 111.48719198 209.53921577 116.11816406 209.79492188 C118.98722916 209.94649513 121.85546352 210.08517656 124.72558594 210.21289062 C129.08192969 210.40984036 133.43445375 210.65033916 137.787323 210.91268921 C139.54876013 211.01226078 141.3110055 211.09846758 143.07376099 211.17105103 C157.31818951 211.77251263 157.31818951 211.77251263 161.41845703 214.76513672 C162.98787025 216.8094977 164.01993364 218.6249548 165 221 C165.36287109 221.69706055 165.72574219 222.39412109 166.09960938 223.11230469 C167.9021761 226.89143861 167.58353503 230.93407849 167 235 C164.74374165 240.95560581 160.06587016 243.48758804 154.48046875 246.00390625 C148.37118338 248.45724132 142.52293469 249.5554894 136 250 C135.19691406 250.06574219 134.39382813 250.13148438 133.56640625 250.19921875 C116.74751893 250.90712547 99.27844842 245.82065956 83 242 C82.55011719 242.64324219 82.10023438 243.28648437 81.63671875 243.94921875 C77.76118393 249.39360735 73.74629123 254.64383391 69.4375 259.75 C68.73838501 260.57999512 68.73838501 260.57999512 68.02514648 261.42675781 C64.93934041 265.03617965 61.71231802 268.32173815 58.046875 271.33984375 C56.75231907 273.03004906 56.75231907 273.03004906 57.17749023 275.52148438 C58.25822354 280.09206558 60.12164555 284.07703177 62.11328125 288.31640625 C62.95768421 290.15169182 63.80208519 291.98697831 64.64648438 293.82226562 C65.9739438 296.68405809 67.30414733 299.54455694 68.63549805 302.40454102 C84.11970872 335.74603255 84.11970872 335.74603255 80.3046875 347.0625 C76.69600279 354.09791894 70.79987408 357.62685388 63.65625 360.2734375 C58.08134331 361.79833845 53.12346634 361.76124265 47.6875 359.8125 C38.8158315 353.82928171 34.73153435 345.26230075 31.484375 335.390625 C31.18307678 334.50139343 30.88177856 333.61216187 30.5713501 332.69598389 C29.62126584 329.88379132 28.68563048 327.06702984 27.75 324.25 C27.10767764 322.34474613 26.46445643 320.43979504 25.8203125 318.53515625 C24.64805999 315.05545511 23.47719259 311.57534095 22.31933594 308.09082031 C22.08792908 307.3954718 21.85652222 306.70012329 21.61810303 305.98370361 C21.00105869 304.00339771 20.48277501 302.01684359 20 300 C16.02035144 301.25250955 12.21737464 302.74003238 8.39575195 304.41113281 C-29.79908418 320.93701293 -74.45510714 321.48558651 -113.25024414 306.43579102 C-125.93123588 301.2810607 -137.77112019 294.81455926 -149 287 C-150.04414063 286.27554687 -151.08828125 285.55109375 -152.1640625 284.8046875 C-173.38613199 269.26992199 -189.09438207 249.25816315 -201 226 C-201.75216797 224.54013672 -201.75216797 224.54013672 -202.51953125 223.05078125 C-212.76200983 201.81796058 -217.4349643 178.50409758 -217.375 155.0625 C-217.37478851 154.29642426 -217.37457703 153.53034851 -217.37435913 152.74105835 C-217.3228858 133.98939534 -214.25773479 116.67569396 -208 99 C-207.44892578 97.37964844 -207.44892578 97.37964844 -206.88671875 95.7265625 C-200.23498699 77.21143285 -189.54825867 61.02692705 -177 46 C-176.41476563 45.29101562 -175.82953125 44.58203125 -175.2265625 43.8515625 C-171.18387042 39.07716145 -166.80317855 34.99699133 -162 31 C-161.18789062 30.30003906 -160.37578125 29.60007813 -159.5390625 28.87890625 C-115.73269758 -8.18307698 -54.06781199 -19.5077629 0 0 Z M-158.828125 36.98046875 C-160.73204605 38.75084138 -162.67891151 40.41385768 -164.6875 42.0625 C-191.26038773 64.87449179 -207.56859283 103.90628494 -210.7890625 138.11767578 C-213.95592649 181.39081955 -201.9586964 222.55187151 -173.71875 255.67578125 C-171.52265498 258.1618536 -169.2774304 260.58837093 -167 263 C-166.26652344 263.79792969 -165.53304687 264.59585937 -164.77734375 265.41796875 C-153.34092426 277.42716384 -139.69012301 286.47068161 -125 294 C-123.92363281 294.55300781 -122.84726563 295.10601562 -121.73828125 295.67578125 C-108.1471388 302.27524439 -93.86500782 306.50454579 -79 309 C-78.08863281 309.1753125 -77.17726562 309.350625 -76.23828125 309.53125 C-44.20935174 314.16752448 -10.45590219 308.45921609 18 293 C17.34 290.36 16.68 287.72 16 285 C12.17874273 286.13604946 8.65415551 287.6078038 5.0625 289.3125 C-28.95683029 304.8381004 -68.86957606 305.94943404 -104.0859375 293.62109375 C-107.78934425 292.19640792 -111.39309171 290.65332877 -115 289 C-115.65307129 288.70222656 -116.30614258 288.40445312 -116.97900391 288.09765625 C-151.86493739 272.00287765 -179.02464451 242.98266309 -192.734375 207.07666016 C-206.74810114 168.56810852 -205.1699169 127.55159602 -188.10302734 90.32373047 C-180.67867398 74.68296125 -170.85107448 61.59176663 -159 49 C-158.1028125 48.00613281 -158.1028125 48.00613281 -157.1875 46.9921875 C-132.69386325 20.91491044 -94.30074943 6.987104 -59.16015625 5.87890625 C-20.37559763 5.08297966 17.79164193 18.29822564 46.01171875 45.28515625 C47.98396075 47.20583942 47.98396075 47.20583942 51 48 C51.69911011 49.31661204 52.36345658 50.6520257 53 52 C54.34770166 53.40193899 54.34770166 53.40193899 55.9375 54.75 C76.44826994 74.70526992 87.05912487 104.52621665 92 132 C92.26018921 133.38215698 92.26018921 133.38215698 92.52563477 134.79223633 C96.22322192 159.7961466 91.24850351 184.21364869 84 208 C86.97 208.33 89.94 208.66 93 209 C102.7703838 181.05029552 106.48910879 149.02431433 99 120 C98.56494141 118.11474609 98.56494141 118.11474609 98.12109375 116.19140625 C92.013593 91.22476091 79.47755846 67.88602419 61.953125 49.10546875 C60.35939276 47.38742539 58.88541074 45.65134665 57.4375 43.8125 C43.03869646 27.19849592 21.46797995 14.46256601 1 7 C-0.10988281 6.58234375 -1.21976563 6.1646875 -2.36328125 5.734375 C-16.27331843 0.77397506 -31.20480758 -2.57034163 -46 -3 C-46.64582031 -3.02046387 -47.29164063 -3.04092773 -47.95703125 -3.06201172 C-88.74104752 -4.18972332 -128.74077599 8.90877548 -158.828125 36.98046875 Z M-139 36 C-139.84304687 36.63421875 -140.68609375 37.2684375 -141.5546875 37.921875 C-151.86683216 45.95314031 -161.1201647 54.54542498 -169 65 C-169.72832031 65.96292969 -170.45664063 66.92585938 -171.20703125 67.91796875 C-193.92263109 99.3060743 -203.87064707 138.39676293 -197.875 176.875 C-194.2021163 197.88955917 -186.53977477 218.62345496 -174 236 C-173.44070801 236.77706299 -173.44070801 236.77706299 -172.87011719 237.56982422 C-161.21652634 253.55974324 -147.5424415 266.21029145 -131 277 C-129.69869141 277.88751953 -129.69869141 277.88751953 -128.37109375 278.79296875 C-98.15792355 298.3921209 -58.14968864 302.93587619 -23.4519043 295.78198242 C-10.45625848 292.84432791 2.18051199 288.11769186 14 282 C12.48020523 274.45701858 10.26246686 267.24753545 7.875 259.9375 C7.50246094 258.78572266 7.12992188 257.63394531 6.74609375 256.44726562 C5.83437981 253.63030331 4.9189396 250.81461174 4 248 C3.46221924 248.25168945 2.92443848 248.50337891 2.37036133 248.76269531 C-7.90831701 253.5483725 -17.97266087 258.21609952 -29 261 C-29.78503906 261.21140625 -30.57007813 261.4228125 -31.37890625 261.640625 C-58.71326561 268.11576935 -89.17314801 262.18420588 -112.875 247.5625 C-118.75255537 243.62933228 -124.75770856 239.39522972 -129.65625 234.265625 C-130.93499489 232.7714571 -130.93499489 232.7714571 -133 233 C-133.25523437 232.42121094 -133.51046875 231.84242188 -133.7734375 231.24609375 C-135.1239206 228.77307534 -136.67184081 227.08958354 -138.625 225.0625 C-150.40420599 212.00526081 -157.99506989 194.98573373 -162 178 C-162.22558594 177.09765625 -162.45117188 176.1953125 -162.68359375 175.265625 C-168.46670173 147.66624072 -161.70042676 117.72385944 -147 94 C-144.14465362 89.87672009 -141.13038851 85.91732537 -138 82 C-137.49855469 81.34386719 -136.99710938 80.68773438 -136.48046875 80.01171875 C-119.65553629 58.91994463 -91.26624427 47.54831161 -65.28320312 44.24316406 C-39.19481574 41.46471733 -10.82097277 48.70171146 10.33203125 64.3671875 C12.97120093 66.50067013 15.49245683 68.71432626 18 71 C19.14275391 71.93199219 19.14275391 71.93199219 20.30859375 72.8828125 C39.18297145 88.51877877 51.94751197 114.33090785 54.78027344 138.51708984 C56.71406217 160.36890255 54.51365693 180.56923731 45.13671875 200.48046875 C43.86291803 202.84316061 43.86291803 202.84316061 44 205 C48.08992596 205.93279013 52.08539914 206.27687649 56.26953125 206.53515625 C56.95053391 206.57813339 57.63153656 206.62111053 58.33317566 206.66539001 C60.49276577 206.8009486 62.65261127 206.9317946 64.8125 207.0625 C66.28322256 207.153985 67.75392595 207.24577863 69.22460938 207.33789062 C72.81619141 207.56216585 76.40801774 207.78221765 80 208 C82.97665917 200.6242454 85.68055216 193.43020042 87.25 185.625 C87.40984375 184.88378906 87.5696875 184.14257812 87.734375 183.37890625 C89.76699849 173.77476026 90.24177445 164.40977735 90.25 154.625 C90.25067474 153.90691162 90.25134949 153.18882324 90.25204468 152.44897461 C90.20007522 117.66926432 77.40311081 85.60369408 55 59 C54.01 57.824375 54.01 57.824375 53 56.625 C31.03758481 31.23095744 -1.90039022 14.48985243 -35 10 C-35.81726563 9.88914062 -36.63453125 9.77828125 -37.4765625 9.6640625 C-73.02541423 5.69032379 -110.22196418 14.35046847 -139 36 Z M-133.703125 81.328125 C-146.03784705 95.67667923 -154.23650784 111.71744708 -159 130 C-159.24621094 130.93328125 -159.49242187 131.8665625 -159.74609375 132.828125 C-165.74408306 161.12208838 -158.39711998 190.09394529 -143 214 C-140.47405165 217.46605694 -137.79051648 220.74537657 -135 224 C-134.52175781 224.61101562 -134.04351562 225.22203125 -133.55078125 225.8515625 C-121.85011796 240.53606256 -104.34202045 249.77200356 -87 256 C-85.58654297 256.50853516 -85.58654297 256.50853516 -84.14453125 257.02734375 C-57.92861571 265.19695464 -29.28227076 260.79745939 -5 249 C-2.63242067 247.71619565 -0.31811432 246.37280536 2 245 C1.65772428 242.02934491 1.65772428 242.02934491 1 239 C-1.47510261 237.76244869 -2.42474659 238.0868999 -5.12109375 238.55859375 C-5.96414062 238.6975708 -6.8071875 238.83654785 -7.67578125 238.97973633 C-8.58714844 239.13079834 -9.49851563 239.28186035 -10.4375 239.4375 C-46.47716954 244.93638059 -88.30280527 239.13389719 -118.6875 218.1875 C-126.00693005 212.67186112 -131.21166463 206.97880061 -135.23046875 198.703125 C-135.75406982 197.63223633 -136.2776709 196.56134766 -136.81713867 195.45800781 C-137.20748291 194.64686523 -137.59782715 193.83572266 -138 193 C-137.41561692 193.04122986 -136.83123384 193.08245972 -136.22914219 193.12493896 C-121.98097892 194.12996869 -107.73257352 195.13150908 -93.4838953 196.12921143 C-86.59322809 196.61178445 -79.70264617 197.09551911 -72.81225586 197.58203125 C-66.15997748 198.05172761 -59.50747557 198.51812998 -52.85482597 198.98254395 C-50.31950694 199.16006883 -47.78426432 199.33868868 -45.24910164 199.51843262 C-41.69238826 199.77041505 -38.13542062 200.01846753 -34.57836914 200.265625 C-33.01390297 200.37783386 -33.01390297 200.37783386 -31.41783142 200.49230957 C-25.59497471 200.89226409 -19.83666417 201.07093983 -14 201 C-18.80677809 195.44216283 -23.66483563 193.51633564 -30.89355469 192.3972168 C-34.49331142 191.48840937 -34.91488157 191.11483843 -37.28295898 187.91992188 C-37.90580543 186.61722387 -38.49610671 185.29862522 -39.05859375 183.96875 C-39.38580917 183.25650269 -39.7130246 182.54425537 -40.05015564 181.8104248 C-41.07087419 179.55463266 -42.04159266 177.28289557 -43 175 C-43.44995331 173.94256592 -43.44995331 173.94256592 -43.90899658 172.86376953 C-46.05632278 167.77929941 -48.07151133 162.64731763 -50.0625 157.5 C-50.69848137 155.86752905 -51.33463448 154.235125 -51.97094727 152.6027832 C-53.64462257 148.29981621 -55.30520358 143.99189066 -56.96398926 139.6831665 C-58.01939942 136.94975739 -59.08241033 134.21941219 -60.14746094 131.48974609 C-61.92223003 126.93882886 -63.68031982 122.38179102 -65.42648315 117.81982422 C-66.09490071 116.07950531 -66.76810291 114.34101575 -67.44631958 112.60449219 C-68.39418834 110.17262995 -69.32235098 107.73407974 -70.24609375 105.29296875 C-70.52657562 104.58508713 -70.8070575 103.87720551 -71.09603882 103.14787292 C-73.03577793 97.93168549 -73.24036084 93.56034741 -73 88 C-69.37 87.01 -65.74 86.02 -62 85 C-61.90340088 85.80816162 -61.80680176 86.61632324 -61.70727539 87.44897461 C-60.83874441 91.80961775 -59.32974405 95.69774842 -57.68359375 99.81640625 C-57.35102066 100.6623938 -57.01844757 101.50838135 -56.67579651 102.38000488 C-55.60159623 105.10959911 -54.51954137 107.83600586 -53.4375 110.5625 C-52.33787506 113.35187503 -51.24028332 116.14204474 -50.14273071 118.93223572 C-49.4226994 120.76214893 -48.70198109 122.59179197 -47.9805603 124.42115784 C-45.27478054 131.2846213 -42.61336637 138.1632379 -40 145.0625 C-39.68087646 145.90433838 -39.36175293 146.74617676 -39.03295898 147.61352539 C-38.35372042 149.4084177 -37.67652831 151.20408439 -37 153 C-35.68 153 -34.36 153 -33 153 C-35.05958276 145.69397342 -37.57062217 138.64892167 -40.34375 131.5859375 C-40.75411499 130.53145416 -41.16447998 129.47697083 -41.58728027 128.39053345 C-42.88789824 125.05059673 -44.1937776 121.71274833 -45.5 118.375 C-46.80503999 115.02965904 -48.10900029 111.683899 -49.41271973 108.33804321 C-50.22086008 106.26519533 -51.02996944 104.19272488 -51.84020996 102.12069702 C-52.56719454 100.26021488 -53.29221696 98.39896433 -54.01489258 96.5368042 C-54.65011388 94.90101096 -55.29021597 93.26710062 -55.9362793 91.63555908 C-57.11360043 88.61215644 -58 86.27526138 -58 83 C-51.565 80.525 -51.565 80.525 -45 78 C-44.5781543 79.29043213 -44.15630859 80.58086426 -43.72167969 81.91040039 C-42.09023345 86.8016967 -40.2975663 91.61925962 -38.453125 96.43359375 C-38.11883484 97.31040298 -37.78454468 98.18721222 -37.44012451 99.09059143 C-36.73505072 100.93890373 -36.02908422 102.78687572 -35.32226562 104.63452148 C-34.26503164 107.39820622 -33.21037983 110.16286436 -32.15625 112.92773438 C-27.81572344 124.30273644 -23.42752914 135.65859323 -19 147 C-16.525 146.505 -16.525 146.505 -14 146 C-18.31501013 134.45021777 -22.6795187 122.91968241 -27.06884766 111.39794922 C-28.13144008 108.60809144 -29.19269244 105.81772618 -30.25390625 103.02734375 C-30.94262699 101.21871902 -31.63142629 99.41012421 -32.3203125 97.6015625 C-32.6308255 96.78466949 -32.9413385 95.96777649 -33.26126099 95.12612915 C-35.18958948 90.06919991 -37.18785684 85.04748914 -39.25436401 80.04525757 C-40 78 -40 78 -40 76 C-35.38 74.35 -30.76 72.7 -26 71 C-25.67 72.65 -25.34 74.3 -25 76 C-24.54902582 77.37494992 -24.06333672 78.73897076 -23.54467773 80.08984375 C-23.10302528 81.24891235 -23.10302528 81.24891235 -22.65245056 82.43139648 C-22.33272781 83.25841064 -22.01300507 84.0854248 -21.68359375 84.9375 C-21.18147118 86.25053101 -21.18147118 86.25053101 -20.66920471 87.59008789 C-19.59568282 90.39483149 -18.51672471 93.19744647 -17.4375 96 C-16.38920883 98.73386949 -15.34202297 101.46815933 -14.2953186 104.20263672 C-13.59594641 106.02558947 -12.89393975 107.8475337 -12.18930054 109.66845703 C-10.34747965 114.43516133 -8.55322727 119.2129634 -6.82861328 124.0234375 C-6.47509293 124.99418213 -6.12157257 125.96492676 -5.75733948 126.96508789 C-5.08084486 128.82677746 -4.41682636 130.6930604 -3.76695251 132.56420898 C-3.46237625 133.39509033 -3.15779999 134.22597168 -2.84399414 135.08203125 C-2.5834877 135.81655518 -2.32298126 136.5510791 -2.05458069 137.30786133 C-1.11575542 139.20682489 -1.11575542 139.20682489 1.11524963 139.74487305 C1.73721725 139.82906494 2.35918488 139.91325684 3 140 C2.4348548 133.79926285 0.48866332 128.57053078 -1.82421875 122.81640625 C-2.20810257 121.84323959 -2.59198639 120.87007294 -2.98750305 119.86741638 C-4.21372004 116.76290439 -5.4502073 113.6626123 -6.6875 110.5625 C-8.29803703 106.50227673 -9.90490694 102.44060499 -11.51171875 98.37890625 C-11.89939423 97.40007477 -12.2870697 96.42124329 -12.68649292 95.41275024 C-15.02207515 89.50652667 -17.33439105 83.59264284 -19.58203125 77.65234375 C-19.95759407 76.66869591 -19.95759407 76.66869591 -20.34074402 75.66517639 C-22 71.23925443 -22 71.23925443 -22 69 C-20.61756637 68.38558505 -19.21806617 67.80947495 -17.8125 67.25 C-17.03519531 66.92515625 -16.25789062 66.6003125 -15.45703125 66.265625 C-13 66 -13 66 -10.61157227 67.40380859 C-7.06258642 70.93189268 -5.60398019 74.67504934 -3.7578125 79.2734375 C-3.37472931 80.19780609 -2.99164612 81.12217468 -2.59695435 82.07455444 C1.83321507 92.84995567 5.99107629 103.73339458 10.125 114.625 C10.89156043 116.63295251 11.65848687 118.64076533 12.42578125 120.6484375 C15.98962686 129.98698178 19.51918608 139.33820543 22.9921875 148.7109375 C23.2835257 149.49360992 23.57486389 150.27628235 23.87503052 151.08267212 C26.01362866 156.88448477 27.78979031 161.78040134 27 168 C25.36919456 170.98216339 23.56137249 173.7516309 21.62890625 176.546875 C17.91938655 182.13339388 18.42510737 188.5268583 19 195 C20.03464713 198.30273822 21.33960172 200.93864068 23 204 C31.415 204.495 31.415 204.495 40 205 C51.74810413 180.35201683 57.00541141 152.7954714 49 126 C48.80132324 125.32855957 48.60264648 124.65711914 48.39794922 123.96533203 C39.73238778 95.39818905 20.68077263 72.9260721 -5.4375 58.6875 C-48.20221706 36.30219585 -100.71964702 46.57372203 -133.703125 81.328125 Z M-17 71 C-16.37418967 74.55945203 -15.43331075 77.76640523 -14.12988281 81.13476562 C-13.74568176 82.13350708 -13.36148071 83.13224854 -12.96563721 84.16125488 C-12.54900818 85.23210327 -12.13237915 86.30295166 -11.703125 87.40625 C-11.05715363 89.08068176 -11.05715363 89.08068176 -10.39813232 90.78894043 C-9.01919364 94.36076472 -7.63469849 97.9304052 -6.25 101.5 C-5.33296222 103.8722524 -4.41629159 106.24464678 -3.5 108.6171875 C-1.79818139 113.02237238 -0.09412368 117.42667702 1.61230469 121.83007812 C4.0859091 128.21581875 6.54365222 134.60760316 9 141 C5.04 142.65 1.08 144.3 -3 146 C-3.4218457 144.54207031 -3.84369141 143.08414063 -4.27832031 141.58203125 C-5.80091991 136.51248946 -7.59785618 131.60620703 -9.546875 126.6875 C-10.04831024 125.40770264 -10.04831024 125.40770264 -10.55987549 124.10205078 C-11.61952904 121.39988802 -12.68459492 118.69989949 -13.75 116 C-14.44828903 114.22280251 -15.14620811 112.44545962 -15.84375 110.66796875 C-17.21782194 107.16734539 -18.59372111 103.66744831 -19.97070312 100.16796875 C-23.00316568 92.45415583 -26.00202751 84.72726821 -29 77 C-30.98 77.33 -32.96 77.66 -35 78 C-32.950935 85.25322791 -30.47182763 92.25691293 -27.7265625 99.2734375 C-27.32094086 100.31843414 -26.91531921 101.36343079 -26.49740601 102.44009399 C-25.64362468 104.63752043 -24.78801606 106.83423768 -23.93066406 109.03027344 C-22.63196989 112.35714519 -21.33893147 115.68617049 -20.046875 119.015625 C-19.21126906 121.16419148 -18.37534199 123.3126331 -17.5390625 125.4609375 C-17.15867828 126.43944672 -16.77829407 127.41795593 -16.38638306 128.42611694 C-13.69028508 135.32652358 -10.87411741 142.17191727 -8 149 C-16.765625 151.96484375 -16.765625 151.96484375 -21 153 C-21.43231934 151.86385254 -21.86463867 150.72770508 -22.31005859 149.55712891 C-22.92284745 147.94693854 -23.5356408 146.33674988 -24.1484375 144.7265625 C-24.47682114 143.86356033 -24.80520477 143.00055817 -25.14353943 142.11140442 C-26.95344151 137.35593738 -28.76534366 132.60124599 -30.58081055 127.84790039 C-36.8781919 111.35538072 -36.8781919 111.35538072 -39.45721436 104.41204834 C-40.15317257 102.53890846 -40.85406241 100.66760314 -41.55517578 98.79638672 C-42.37651845 96.60220567 -43.18909241 94.40471676 -43.99169922 92.20361328 C-44.53141357 90.77057861 -44.53141357 90.77057861 -45.08203125 89.30859375 C-45.38343018 88.49189209 -45.6848291 87.67519043 -45.99536133 86.83374023 C-46.92263302 84.64797782 -46.92263302 84.64797782 -50 84 C-50.99 84.33 -51.98 84.66 -53 85 C-51.77718683 91.35998554 -49.95428387 97.20865858 -47.55078125 103.21484375 C-47.21507614 104.06945694 -46.87937103 104.92407013 -46.53349304 105.80458069 C-45.46603625 108.51805063 -44.38953862 111.22782106 -43.3125 113.9375 C-42.60940653 115.71915669 -41.90692811 117.50105622 -41.20507812 119.28320312 C-37.5902399 128.46014066 -37.5902399 128.46014066 -33.95306396 137.62823486 C-32.95782973 140.12675175 -31.96867875 142.62760454 -30.98046875 145.12890625 C-30.67869217 145.88098862 -30.37691559 146.63307098 -30.06599426 147.40794373 C-28.8817866 150.41802974 -28 152.73451606 -28 156 C-31.63 157.32 -35.26 158.64 -39 160 C-39.4218457 158.70956787 -39.84369141 157.41913574 -40.27832031 156.08959961 C-41.90976655 151.1983033 -43.7024337 146.38074038 -45.546875 141.56640625 C-45.88116516 140.68959702 -46.21545532 139.81278778 -46.55987549 138.90940857 C-47.26494928 137.06109627 -47.97091578 135.21312428 -48.67773438 133.36547852 C-49.73496836 130.60179378 -50.78962017 127.83713564 -51.84375 125.07226562 C-56.18427656 113.69726356 -60.57247086 102.34140677 -65 91 C-66.32 91 -67.64 91 -69 91 C-70.40369594 95.21108782 -68.77614714 98.0715031 -67.265625 102.046875 C-66.96043442 102.87031906 -66.65524384 103.69376312 -66.34080505 104.54216003 C-65.32093346 107.28212187 -64.28626289 110.01619877 -63.25 112.75 C-62.53359854 114.65697811 -61.81720875 116.5639606 -61.10083008 118.47094727 C-55.47968274 133.36561152 -49.62996009 148.16847673 -43.6875 162.9375 C-43.06772278 164.48419373 -43.06772278 164.48419373 -42.4354248 166.06213379 C-41.25948584 168.99091174 -40.07481115 171.91597807 -38.88671875 174.83984375 C-38.53733749 175.71086227 -38.18795624 176.5818808 -37.82798767 177.47929382 C-35.57491824 183.13123537 -35.57491824 183.13123537 -32 188 C-29.49400369 189.01671238 -29.49400369 189.01671238 -26.6875 189.5625 C-19.10380381 191.42095519 -12.4771881 194.09525766 -8.14526367 200.92358398 C-4.2857996 208.77099113 -1.31538695 216.51538032 1.08520508 224.95297241 C2.19231455 228.83060426 3.35270963 232.69230761 4.51171875 236.5546875 C4.77161591 237.42218124 5.03151306 238.28967499 5.29928589 239.18345642 C11.29334219 259.03070329 17.98380458 278.67568899 24.49217224 298.35928345 C26.59079076 304.71031156 28.67639581 311.06494826 30.72650146 317.43180847 C31.7175304 320.50889752 32.71690886 323.58323321 33.71777344 326.65713501 C34.34616951 328.59843418 34.96244341 330.54364475 35.578125 332.48901367 C38.26701463 340.7022966 41.41396737 348.49736348 47.6875 354.625 C53.44581342 357.01524331 58.86746586 357.02957416 64.79296875 355.08203125 C69.97844284 352.71524913 73.81356388 350.4660903 76 345 C78.45609908 329.16650689 67.90555743 312.79052267 61.625 298.75 C60.72903778 296.74118704 59.83320597 294.73231591 58.9375 292.72338867 C46.78324027 265.48876771 34.59617519 238.2363429 21.7734375 211.30859375 C21.44666016 210.61975098 21.11988281 209.9309082 20.78320312 209.22119141 C19.9620031 207.49534683 19.13375927 205.77285819 18.3046875 204.05078125 C14.53703066 195.24078128 13.30977909 186.71314265 16.75 177.625 C18.03788564 174.70425936 19.17773509 172.78770531 21.25 170.3125 C23.73098701 167.03405288 23.30928417 165.08107952 23 161 C22.20360062 157.87154344 21.11455728 154.87873096 19.98828125 151.85546875 C19.51640129 150.55055733 19.51640129 150.55055733 19.0349884 149.21928406 C18.03694919 146.47428764 17.0211368 143.7364806 16 141 C15.68109802 140.14085999 15.36219604 139.28171997 15.03363037 138.39654541 C12.78635076 132.35514986 10.49398621 126.33150153 8.1875 120.3125 C7.84127594 119.40732635 7.49505188 118.50215271 7.13833618 117.56954956 C4.76860589 111.37594095 2.38762057 105.18673156 0 99 C-0.42394043 97.89990601 -0.42394043 97.89990601 -0.85644531 96.77758789 C-2.49317247 92.53313474 -4.14622634 88.29546797 -5.8125 84.0625 C-6.20219971 83.05807861 -6.59189941 82.05365723 -6.9934082 81.01879883 C-7.35265381 80.11669678 -7.71189941 79.21459473 -8.08203125 78.28515625 C-8.38343018 77.52082275 -8.6848291 76.75648926 -8.99536133 75.96899414 C-10.10367879 73.79679965 -11.05179941 72.47260272 -13 71 C-14.32 71 -15.64 71 -17 71 Z M-130 198 C-126.35836518 207.55237941 -118.62658377 213.85163029 -110 219 C-109.01 219.33 -108.02 219.66 -107 220 C-105.45833358 218.62514468 -105.45833358 218.62514468 -104 217 C-104 216.34 -104 215.68 -104 215 C-103.01 215.99 -102.02 216.98 -101 218 C-101.66 218.66 -102.32 219.32 -103 220 C-103 220.99 -103 221.98 -103 223 C-101.35 223.66 -99.7 224.32 -98 225 C-96.99406757 223.8803014 -95.9954151 222.7540588 -95 221.625 C-94.443125 220.99851563 -93.88625 220.37203125 -93.3125 219.7265625 C-91.79827513 218.09610167 -91.79827513 218.09610167 -92 216 C-91.01 216.99 -90.02 217.98 -89 219 C-90.30208333 220.49739583 -91.60416667 221.99479167 -92.90625 223.4921875 C-94.19572458 224.95936421 -94.19572458 224.95936421 -94 227 C-91.69 227.33 -89.38 227.66 -87 228 C-85.82750647 226.54634731 -84.66216184 225.08692581 -83.5 223.625 C-82.52546875 222.40683594 -82.52546875 222.40683594 -81.53125 221.1640625 C-79.80746385 219.16973157 -79.80746385 219.16973157 -80 217 C-79.01 217.99 -78.02 218.98 -77 220 C-79.31 222.97 -81.62 225.94 -84 229 C-82.18068265 231.18103513 -82.18068265 231.18103513 -79.67578125 231.5 C-76.33890412 230.87646675 -75.30167488 229.42841016 -73.36132812 226.734375 C-72.97396484 226.16203125 -72.58660156 225.5896875 -72.1875 225 C-71.78080078 224.42765625 -71.37410156 223.8553125 -70.95507812 223.265625 C-69.95525768 221.85411379 -68.97561378 220.42834959 -68 219 C-67.01 219.33 -66.02 219.66 -65 220 C-65.40992188 220.60328125 -65.81984375 221.2065625 -66.2421875 221.828125 C-66.78101563 222.62734375 -67.31984375 223.4265625 -67.875 224.25 C-68.40867188 225.03890625 -68.94234375 225.8278125 -69.4921875 226.640625 C-70.81822015 228.71555692 -71.94928175 230.77614972 -73 233 C-70.03 233.495 -70.03 233.495 -67 234 C-63.37 229.38 -59.74 224.76 -56 220 C-55.01 220.99 -55.01 220.99 -54 222 C-54.6496875 222.85464844 -55.299375 223.70929688 -55.96875 224.58984375 C-56.81262529 225.70563442 -57.6563685 226.82152499 -58.5 227.9375 C-58.92925781 228.50146484 -59.35851562 229.06542969 -59.80078125 229.64648438 C-62.02087149 232.07552033 -62.02087149 232.07552033 -63 235 C-59.73133069 235.95619317 -59.73133069 235.95619317 -56 236 C-53.34199665 233.87537807 -53.34199665 233.87537807 -51.3125 230.8125 C-48.70583489 227.27984373 -46.19441624 224.02135531 -43 221 C-42.505 221.99 -42.505 221.99 -42 223 C-44.97 226.96 -47.94 230.92 -51 235 C-48.27823741 237.1977995 -48.27823741 237.1977995 -45.67578125 237.06640625 C-41.60670702 235.44471681 -39.72515017 232.40347614 -37.1875 228.9375 C-36.68541016 228.27427734 -36.18332031 227.61105469 -35.66601562 226.92773438 C-34.43201314 225.29415013 -33.21437259 223.648229 -32 222 C-31.01 222.99 -31.01 222.99 -30 224 C-30.6496875 224.85464844 -31.299375 225.70929688 -31.96875 226.58984375 C-32.81262529 227.70563442 -33.6563685 228.82152499 -34.5 229.9375 C-34.92925781 230.50146484 -35.35851562 231.06542969 -35.80078125 231.64648438 C-38.02087149 234.07552033 -38.02087149 234.07552033 -39 237 C-33.82373884 237.77074757 -33.82373884 237.77074757 -29.30859375 235.6875 C-27.74498988 233.85853255 -26.36017915 231.98471211 -25 230 C-24.51144531 229.33226562 -24.02289063 228.66453125 -23.51953125 227.9765625 C-22.32309962 226.33440144 -21.15828192 224.66928865 -20 223 C-19.01 223.99 -19.01 223.99 -18 225 C-18.5775 225.78246094 -19.155 226.56492188 -19.75 227.37109375 C-20.4925 228.38300781 -21.235 229.39492187 -22 230.4375 C-22.7425 231.44683594 -23.485 232.45617187 -24.25 233.49609375 C-26.09547691 235.62746873 -26.09547691 235.62746873 -26 237 C-23.52008842 236.88437222 -21.04151241 236.75768577 -18.5625 236.625 C-17.53092773 236.57859375 -17.53092773 236.57859375 -16.47851562 236.53125 C-11.16362723 236.23460507 -6.16146138 235.28602068 -1 234 C-1.92683422 230.45545495 -2.86835897 226.91497087 -3.8125 223.375 C-4.07353516 222.37597656 -4.33457031 221.37695312 -4.60351562 220.34765625 C-4.86455078 219.37441406 -5.12558594 218.40117187 -5.39453125 217.3984375 C-5.63018799 216.50817871 -5.86584473 215.61791992 -6.10864258 214.70068359 C-7.16298073 211.50619206 -8.15331914 208.82911406 -10 206 C-12.77033839 204.97344599 -12.77033839 204.97344599 -16.109375 204.93359375 C-16.75567368 204.88903046 -17.40197235 204.84446716 -18.06785583 204.79855347 C-20.29441005 204.65137235 -22.52121154 204.5452127 -24.75 204.4375 C-26.36256969 204.33847691 -27.97495327 204.23638601 -29.5871582 204.1315918 C-33.39226366 203.8870905 -37.19800167 203.65807892 -41.00439453 203.43457031 C-48.52522117 202.98057917 -56.03869059 202.43507367 -63.55298233 201.88515282 C-67.54269514 201.59318199 -71.53258865 201.30369794 -75.52246094 201.01391602 C-76.32023264 200.95596265 -77.11800434 200.89800928 -77.93995094 200.83829975 C-80.35578952 200.66287966 -82.77164146 200.48764489 -85.1875 200.3125 C-85.98179916 200.25487865 -86.77609833 200.19725731 -87.59446716 200.13788986 C-92.24461851 199.80115062 -96.89505513 199.4688899 -101.54594612 199.1425209 C-102.9792265 199.0413232 -104.41241171 198.93876642 -105.84548759 198.83471298 C-113.91192852 198.2498278 -121.91132269 197.84966806 -130 198 Z M26 209 C26.57228828 211.02902207 27.27118911 213.02179902 28 215 C28.26039063 215.75796875 28.52078125 216.5159375 28.7890625 217.296875 C29.93456258 219.97262327 31.05579605 221.82390922 33 224 C35.54124576 225.00347444 35.54124576 225.00347444 38.5234375 225.46875 C39.68625244 225.70489014 40.84906738 225.94103027 42.04711914 226.18432617 C42.68271759 226.31157074 43.31831604 226.43881531 43.97317505 226.56991577 C47.66345946 227.35297951 51.30666151 228.32021519 54.95703125 229.26953125 C56.56915201 229.68497798 58.18129436 230.10034092 59.79345703 230.515625 C60.61380432 230.72767578 61.43415161 230.93972656 62.27935791 231.15820312 C66.59517953 232.27295646 70.91301934 233.37985269 75.23046875 234.48828125 C79.79963291 235.66207178 84.36870367 236.83618564 88.93603516 238.01708984 C122.42198465 247.35552675 122.42198465 247.35552675 155.50390625 240.60546875 C159.0130212 238.12586159 161.38416695 236.05558096 163 232 C162.88062143 226.7473429 160.60382549 221.81313859 157 218 C153.73150612 217.17948005 150.50736 216.81355288 147.15159607 216.57603455 C146.2028511 216.50734665 145.25410614 216.43865875 144.27661133 216.3678894 C143.24745605 216.29667877 142.21830078 216.22546814 141.15795898 216.15209961 C139.51791649 216.03483772 139.51791649 216.03483772 137.84474182 215.91520691 C134.22875167 215.65761183 130.61244676 215.40478989 126.99609375 215.15234375 C124.47606793 214.97457217 121.95605364 214.79663706 119.43605042 214.61854553 C114.14949203 214.24573024 108.86277345 213.87530184 103.57592773 213.5065918 C97.49149216 213.08220292 91.40745399 212.65243408 85.3235907 212.21992487 C79.44685126 211.80234543 73.56978668 211.3895079 67.69258308 210.97851753 C65.20438675 210.80398335 62.71628023 210.62816362 60.22826958 210.45100212 C56.73505003 210.20279065 53.2414927 209.95999373 49.74780273 209.71850586 C48.73281708 209.645271 47.71783142 209.57203613 46.67208862 209.49658203 C39.77240246 209.02732373 32.91462934 208.92103796 26 209 Z M35 229 C36.43445593 232.37630174 37.87310895 235.75079959 39.3125 239.125 C39.91868164 240.55199219 39.91868164 240.55199219 40.53710938 242.0078125 C42.56159274 246.74806623 44.62091204 251.42660762 47 256 C53.56742098 250.82990264 61.30383674 244.08848978 64 236 C57.56195612 233.66506524 51.16146847 232.08033558 44.4375 230.8125 C43.52419922 230.63525391 42.61089844 230.45800781 41.66992188 230.27539062 C39.44758929 229.84488641 37.22436453 229.41985482 35 229 Z M68 237 C67.46632813 237.73863281 66.93265625 238.47726563 66.3828125 239.23828125 C60.98512924 246.58772195 55.25721126 253.36395967 49 260 C49.99 262.64 50.98 265.28 52 268 C54.35987991 266.0254066 56.69010151 264.03198171 59 262 C59.54011719 261.52820313 60.08023437 261.05640625 60.63671875 260.5703125 C67.06485515 254.56241747 71.9205557 247.13694073 77 240 C73.81237635 237.87491756 71.73487777 237.4979837 68 237 Z " fill="#000000" transform="translate(217,16)"/>
<path d="M0 0 C0.99 0.66 1.98 1.32 3 2 C2.35934779 5.89033733 0.46451058 8.55374112 -1.6875 11.8125 C-11.78296909 27.6794054 -15.78534536 45.29852899 -16.5625 63.9375 C-16.62727539 65.3925293 -16.62727539 65.3925293 -16.69335938 66.87695312 C-16.79862093 69.25118601 -16.90075707 71.62550921 -17 74 C-18.65 74 -20.3 74 -22 74 C-22.79940955 47.02732975 -17.35879178 21.48304373 0 0 Z " fill="#000000" transform="translate(93,113)"/>
<path d="M0 0 C2.25995344 2.25995344 2.77224877 3.7681944 3.8034668 6.76928711 C4.14689621 7.76049057 4.49032562 8.75169403 4.84416199 9.77293396 C5.20883072 10.84688919 5.57349945 11.92084442 5.94921875 13.02734375 C6.32609329 14.12720108 6.70296783 15.22705841 7.09126282 16.36024475 C7.88687054 18.68859269 8.67936332 21.01800696 9.46899414 23.34838867 C10.68256321 26.92295869 11.91197142 30.49181204 13.14257812 34.06054688 C13.91242975 36.31998175 14.68134177 38.57973703 15.44921875 40.83984375 C15.81996017 41.91177475 16.1907016 42.98370575 16.57267761 44.08811951 C16.90665054 45.08247513 17.24062347 46.07683075 17.5847168 47.10131836 C17.88290817 47.97686874 18.18109955 48.85241913 18.48832703 49.75450134 C19 52 19 52 18 55 C15.9375 55.6875 15.9375 55.6875 14 56 C11.64951442 49.12541751 9.30229727 42.24972844 6.95927429 35.37259865 C5.87127265 32.17948606 4.78213866 28.98676904 3.69042969 25.79492188 C2.43660345 22.1272669 1.1866637 18.45830769 -0.0625 14.7890625 C-0.45622803 13.64007477 -0.84995605 12.49108704 -1.25561523 11.30728149 C-1.61598877 10.2463327 -1.9763623 9.18538391 -2.34765625 8.09228516 C-2.66742432 7.15518707 -2.98719238 6.21808899 -3.31665039 5.25259399 C-4 3 -4 3 -4 1 C-2.125 0.375 -2.125 0.375 0 0 Z " fill="#000000" transform="translate(227,242)"/>
<path d="M0 0 C0.33 1.65 0.66 3.3 1 5 C0.29875 5.49628906 -0.4025 5.99257812 -1.125 6.50390625 C-7.02816941 10.73076804 -12.6478311 15.09256719 -18 20 C-19.32 19.34 -20.64 18.68 -22 18 C-22 16 -22 16 -20.671875 14.58984375 C-3.70212766 0 -3.70212766 0 0 0 Z " fill="#000000" transform="translate(123,87)"/>
<path d="M0 0 C1.6645255 2.49678825 2.44736157 4.02421568 3.2890625 6.79296875 C3.61777344 7.8612793 3.61777344 7.8612793 3.953125 8.95117188 C4.17484375 9.68916016 4.3965625 10.42714844 4.625 11.1875 C4.85445312 11.93708984 5.08390625 12.68667969 5.3203125 13.45898438 C5.88459381 15.30465449 6.44288216 17.15215496 7 19 C5.35 19.66 3.7 20.32 2 21 C1.57847656 19.79601562 1.15695313 18.59203125 0.72265625 17.3515625 C0.16933983 15.77601743 -0.38404936 14.20049792 -0.9375 12.625 C-1.35418945 11.43390625 -1.35418945 11.43390625 -1.77929688 10.21875 C-2.04677734 9.45820313 -2.31425781 8.69765625 -2.58984375 7.9140625 C-2.83597412 7.2123291 -3.08210449 6.5105957 -3.33569336 5.78759766 C-3.98767764 3.93494905 -3.98767764 3.93494905 -5 2 C-3.35 1.34 -1.7 0.68 0 0 Z " fill="#000000" transform="translate(247,301)"/>
</svg>
