<?xml version="1.0" encoding="UTF-8"?>
<svg version="1.1" xmlns="http://www.w3.org/2000/svg" width="384" height="384">
<path d="M0 0 C0.77096008 0.00215515 1.54192017 0.0043103 2.33624268 0.00653076 C31.14254831 0.1355465 62.52702308 6.00362437 86.9375 22.3125 C91.30403822 27.22763555 92.34521674 30.22666942 92.2890625 36.703125 C91.60330704 41.79295441 88.55103302 44.8456518 84.875 48.1875 C80.30423059 50.84149514 75.07660916 50.96039963 69.9375 50.3125 C65.76711199 49.01978049 61.81239533 47.30489596 57.8125 45.5625 C48.5999771 41.7158228 39.7331614 38.36778601 29.9375 36.3125 C28.97972656 36.10238281 28.02195313 35.89226563 27.03515625 35.67578125 C-8.75880001 28.75267037 -47.46156294 36.55181155 -77.765625 56.73046875 C-85.02238186 61.72240892 -91.69610009 67.21544777 -98.0625 73.3125 C-98.908125 74.116875 -99.75375 74.92125 -100.625 75.75 C-128.0914109 104.62494479 -142.94418099 141.38170944 -142.00390625 181.42578125 C-140.3378172 215.80161867 -127.65857545 248.35175326 -103.77734375 273.32421875 C-102.0625 275.3125 -102.0625 275.3125 -101.0625 278.3125 C-99.74101308 279.0023511 -98.40512208 279.66474373 -97.0625 280.3125 C-95.48680795 281.66980666 -93.94809258 283.07059562 -92.4375 284.5 C-64.88142411 309.6128773 -26.97000957 320.68389546 9.8125 319.125 C41.94606804 316.57471682 76.13245548 303.84466188 98.9375 280.3125 C99.5975 279.6525 100.2575 278.9925 100.9375 278.3125 C101.5975 278.3125 102.2575 278.3125 102.9375 278.3125 C103.18113281 277.74789063 103.42476563 277.18328125 103.67578125 276.6015625 C105.17279981 273.88560932 106.99383937 271.93970762 109.125 269.6875 C132.97705707 243.51490787 145.10806536 206.80154169 143.83984375 171.60205078 C142.69109076 150.59680772 137.60982568 132.00357589 129.0625 112.875 C126.61772044 107.02810002 125.62589624 102.22638143 127.671875 96.12109375 C129.62868922 91.76638014 131.85159441 88.93167025 135.9375 86.3125 C141.24354399 84.54381867 146.07907481 84.4547653 151.1875 86.8125 C168.47723461 102.53044056 175.41810898 136.97605078 176.9375 159.3125 C178.99949872 212.46544798 164.85813449 258.9781923 128.4375 298.5 C123.83656247 303.41680921 119.23660412 308.1393438 113.9375 312.3125 C113.40882324 312.73708496 112.88014648 313.16166992 112.33544922 313.59912109 C102.14926137 321.73321709 91.53654703 328.38145232 79.9375 334.3125 C78.81730469 334.88742187 77.69710937 335.46234375 76.54296875 336.0546875 C62.50279979 342.8716752 47.2432782 347.37998613 31.9375 350.3125 C31.02234619 350.49055176 30.10719238 350.66860352 29.16430664 350.85205078 C19.76285115 352.49982722 10.51463268 352.70928203 1 352.6875 C-0.21964447 352.68768127 -0.21964447 352.68768127 -1.46392822 352.68786621 C-14.70452871 352.65990708 -27.18568381 351.55377777 -40.0625 348.3125 C-41.43847522 347.99597156 -42.81476401 347.68080225 -44.19140625 347.3671875 C-74.76053389 339.90518506 -101.47864435 322.78352798 -124.0625 301.3125 C-124.74570313 300.69375 -125.42890625 300.075 -126.1328125 299.4375 C-149.11872291 277.89421995 -163.98997494 246.94159405 -171.25 216.6875 C-171.4823938 215.72179077 -171.4823938 215.72179077 -171.71948242 214.73657227 C-172.20725522 212.601471 -172.64434071 210.4623648 -173.0625 208.3125 C-173.24200195 207.39299561 -173.42150391 206.47349121 -173.60644531 205.52612305 C-175.25250865 196.13045833 -175.46034933 186.88382839 -175.4375 177.375 C-175.43728851 176.56090668 -175.43707703 175.74681335 -175.43685913 174.90805054 C-175.40262067 161.67172199 -174.3636974 149.17514121 -171.0625 136.3125 C-170.86994629 135.51908203 -170.67739258 134.72566406 -170.47900391 133.90820312 C-164.93788663 111.22526691 -155.11238242 89.98574409 -141.0625 71.3125 C-140.42957031 70.46816406 -139.79664063 69.62382813 -139.14453125 68.75390625 C-111.96071003 33.72320881 -73.59356829 10.44829759 -30.0625 2.3125 C-29.12253174 2.13227295 -28.18256348 1.9520459 -27.21411133 1.76635742 C-18.11233662 0.17897847 -9.20820443 -0.04636209 0 0 Z " fill="#0F0F0F" transform="translate(191.0625,15.6875)"/>
<path d="M0 0 C0.72993164 0.14848389 1.45986328 0.29696777 2.21191406 0.44995117 C8.05120254 1.84823512 14.33033125 4.43299687 17.75 9.5625 C19.44659333 18.89376331 19.44659333 18.89376331 17.15234375 23.53125 C14.08006004 27.92256751 10.52591459 31.79687363 5.25 33.3125 C-1.81074839 34.08818785 -8.6927425 33.23745553 -15.6875 32.25 C-35.72440224 29.48661907 -55.17930816 34.98709003 -71.734375 46.36328125 C-74.16751712 48.26186942 -76.47065671 50.23302449 -78.75 52.3125 C-79.66265625 53.08787109 -79.66265625 53.08787109 -80.59375 53.87890625 C-92.59040535 64.75769144 -100.7807897 82.38433065 -102.75 98.3125 C-102.94916016 99.74916016 -102.94916016 99.74916016 -103.15234375 101.21484375 C-105.54894692 122.99969733 -99.15240922 143.22003905 -85.875 160.5625 C-71.97141925 177.20426204 -52.71037161 186.91402139 -31.25 189.0625 C-9.15193838 190.34699443 10.89279355 183.6412843 27.9453125 169.39453125 C44.26235714 154.65387906 52.84873907 134.83845565 54.23046875 113.12890625 C54.25478464 108.37758096 53.68700031 103.84696259 53.02587891 99.15209961 C50.49449392 81.02376057 50.49449392 81.02376057 56.25 73.3125 C58.75 70.9375 58.75 70.9375 61.25 69.3125 C61.848125 68.9 62.44625 68.4875 63.0625 68.0625 C68.12495152 66.32680233 72.11989401 66.8981278 77 68.6875 C81.60705114 71.71349495 82.801904 76.21064325 84.25 81.3125 C84.5490625 82.30378906 84.848125 83.29507813 85.15625 84.31640625 C92.60822153 114.08979248 85.94761054 144.68053117 70.59375 170.59375 C67.30087947 175.94058927 63.49599796 180.69165471 59.25 185.3125 C58.80285645 185.80202148 58.35571289 186.29154297 57.89501953 186.79589844 C39.2453706 206.98848091 12.87595416 220.97434373 -14.85009766 222.48095703 C-28.0516911 222.93565956 -40.98460978 223.03885658 -53.75 219.3125 C-54.98363281 218.96058594 -56.21726562 218.60867188 -57.48828125 218.24609375 C-86.3303263 209.55185102 -108.74082815 190.35021324 -123.97265625 164.65234375 C-138.07102385 138.15980683 -141.21414527 106.11005172 -132.75 77.3125 C-127.8871735 61.62547912 -119.52104532 47.60755555 -108.75 35.3125 C-108.07324219 34.45398438 -107.39648438 33.59546875 -106.69921875 32.7109375 C-82.31704605 2.7096268 -36.36223703 -7.5835086 0 0 Z " fill="#0F0F0F" transform="translate(216.75,81.6875)"/>
<path d="M0 0 C4.65349052 3.62972261 6.77836414 6.66800052 7.50244141 12.453125 C7.57640137 13.52046875 7.65036133 14.5878125 7.7265625 15.6875 C7.84378662 17.30398437 7.84378662 17.30398437 7.96337891 18.953125 C8.01671387 19.77296875 8.07004883 20.5928125 8.125 21.4375 C8.98665771 20.55227661 8.98665771 20.55227661 9.86572266 19.64916992 C12.01775683 17.4457523 14.1766631 15.24936226 16.34033203 13.05737305 C17.72833559 11.64701335 19.10837925 10.22883416 20.48828125 8.81054688 C21.37128906 7.91787109 22.25429688 7.02519531 23.1640625 6.10546875 C23.97053223 5.28328857 24.77700195 4.4611084 25.60791016 3.61401367 C30.38598644 -0.51756247 34.67770663 -2.14388124 40.8828125 -1.9140625 C45.82599387 -1.13899922 49.11186873 1.34438469 52.5 5 C55.35250001 9.27875001 55.740011 13.41898751 55.125 18.4375 C52.18175751 26.04427354 47.18863357 30.84713743 41.375 36.4375 C40.48683594 37.30761719 39.59867188 38.17773438 38.68359375 39.07421875 C36.50624799 41.20473987 34.3201022 43.32530404 32.125 45.4375 C32.94484375 45.49083496 33.7646875 45.54416992 34.609375 45.59912109 C36.22585938 45.71634521 36.22585938 45.71634521 37.875 45.8359375 C38.94234375 45.90989746 40.0096875 45.98385742 41.109375 46.06005859 C46.89449948 46.78413586 49.93277739 48.90900948 53.5625 53.5625 C56.0628279 58.60645152 56.17696073 64.16335003 54.46484375 69.4921875 C52.22859665 74.00340459 48.83062925 76.82352464 44.125 78.4375 C41.1769871 78.38216207 38.47492218 77.61149074 35.62670898 76.89135742 C21.73481298 74.33380501 6.71587067 73.67068788 -5.57662201 81.72577667 C-15.60895684 88.84538995 -24.38268756 97.59610237 -33.02734375 106.30078125 C-34.0273915 107.30777266 -34.0273915 107.30777266 -35.04764223 108.33510733 C-43.38088108 116.76471599 -51.50882658 125.3802837 -59.57443869 134.06536376 C-67.20972194 142.27824883 -74.99503094 150.34454158 -82.78320312 158.41210938 C-90.73421626 166.65415749 -98.67098287 174.90646503 -106.50852966 183.25666809 C-107.70713044 184.52986238 -108.90584296 185.80295148 -110.10467529 187.07592773 C-112.3155743 189.42382816 -114.51544976 191.78136816 -116.70930481 194.14518738 C-117.69683658 195.19508523 -118.68477808 196.2445979 -119.67320251 197.2936554 C-120.93447165 198.64674285 -120.93447165 198.64674285 -122.22122097 200.02716541 C-126.7018299 204.09674564 -131.66858784 207.31337176 -137.875 207.4375 C-142.78513299 206.53047721 -146.10488896 205.14206968 -149.8125 201.75 C-152.60946332 197.2579074 -154.30773594 193.56524961 -153.56640625 188.20703125 C-150.71063528 177.90142298 -141.46896214 170.99560772 -133.92372131 163.97263718 C-130.97944822 161.23091636 -128.04836122 158.47515685 -125.11660767 155.72006226 C-124.49378253 155.13512772 -123.8709574 154.55019319 -123.22925878 153.94753337 C-114.47542827 145.71398599 -105.8371965 137.35937971 -97.19602394 129.00794029 C-90.18196791 122.23572875 -83.13135869 115.5116118 -75.98095703 108.88330078 C-40.11254448 78.95007393 -40.11254448 78.95007393 -21.87916374 38.3602314 C-21.61873152 30.79305359 -22.27661636 23.15232523 -24.09826279 15.79068375 C-25.12489602 11.3331084 -25.03566841 9.0059839 -22.62759399 5.0196228 C-17.47544709 -2.39916128 -8.01908695 -4.0009208 0 0 Z " fill="#0F0F0F" transform="translate(328.875,1.5625)"/>
<path d="M0 0 C1.9375 1.0625 1.9375 1.0625 3 3 C3.05292836 6.54620037 2.75728364 9.04616756 0.51000977 11.87670898 C-1.50364722 13.87792479 -3.57765325 15.78805606 -5.6875 17.6875 C-13.74459359 25.34036488 -20.55251105 33.09004311 -21.1015625 44.7890625 C-20.64603776 54.70548568 -17.50551837 63.01705351 -10.1875 69.875 C-3.07157051 75.6209468 5.2024884 77.53450519 14.28515625 76.8203125 C25.35744313 74.9065839 32.72707542 67.69840304 40.1784668 59.85058594 C40.74605713 59.25536133 41.31364746 58.66013672 41.8984375 58.046875 C42.40036621 57.50901367 42.90229492 56.97115234 43.41943359 56.41699219 C45.18929273 54.83029734 46.79745513 53.88756827 49 53 C52.34977063 53.31902577 53.59179639 53.59179639 56 56 C56.83782333 63.98196554 52.18919827 71.50595939 47.4375 77.6875 C38.00681579 87.73376412 25.83624507 93.88731204 12.09765625 94.51708984 C-1.39990445 94.76497159 -13.0295661 91.56622712 -23 82 C-32.10364819 73.11152895 -38.1175812 62.60618215 -38.38037109 49.64428711 C-38.34990395 36.77191969 -36.03800666 26.358691 -28 16 C-27.2575 14.96875 -26.515 13.9375 -25.75 12.875 C-19.33878254 6.17236357 -9.80228611 -1.33667538 0 0 Z " fill="#0F0F0F" transform="translate(182,146)"/>
</svg>
