<?xml version="1.0" encoding="utf-8"?>
<!-- Uploaded to: SVG Repo, www.svgrepo.com, Generator: SVG Repo Mixer Tools -->
<svg width="800px" height="800px" viewBox="0 0 1024 1024" fill="#000000" class="icon"  version="1.1" xmlns="http://www.w3.org/2000/svg"><path d="M416.504 64.092c-4.42 0-8.076-3.578-8.076-8 0-4.42 3.5-7.998 7.92-7.998h0.156c4.422 0 8 3.578 8 7.998a7.996 7.996 0 0 1-8 8z" fill="" /><path d="M799.94 80.09a7.994 7.994 0 0 1-7.996-8c0-30.868-25.122-55.988-55.988-55.988H288.046c-30.87 0-55.988 25.12-55.988 55.988 0 4.42-3.578 8-7.998 8-4.422 0-8-3.578-8-8 0-39.694 32.29-71.986 71.986-71.986h447.908c39.694 0 71.984 32.292 71.984 71.986a7.992 7.992 0 0 1-7.998 8zM719.958 1023.894H288.046c-39.696 0-71.986-32.292-71.986-71.986V312.042a7.994 7.994 0 0 1 8-7.998 7.994 7.994 0 0 1 7.998 7.998v639.868c0 30.87 25.12 55.988 55.988 55.988h431.91c31.728 0 71.986-26.37 71.986-55.988V312.042a7.992 7.992 0 0 1 7.996-7.998c4.422 0 8 3.578 8 7.998v639.868c0.002 39.866-48.13 71.984-87.98 71.984z" fill="" /><path d="M767.948 879.924H256.052a7.994 7.994 0 0 1-7.998-7.998c0-4.422 3.578-8 7.998-8h511.894a7.994 7.994 0 0 1 7.998 8 7.99 7.99 0 0 1-7.996 7.998zM504.002 991.9c-26.462 0-47.99-21.528-47.99-47.99s21.528-47.99 47.99-47.99 47.99 21.528 47.99 47.99-21.528 47.99-47.99 47.99z m0-79.982c-17.636 0-31.994 14.34-31.994 31.992s14.356 31.994 31.994 31.994c17.652 0 31.992-14.342 31.992-31.994s-14.34-31.992-31.992-31.992zM607.98 64.092h-143.97a7.994 7.994 0 0 1-7.998-8 7.994 7.994 0 0 1 7.998-7.998h143.97a7.994 7.994 0 0 1 7.998 7.998c0 4.424-3.578 8-7.998 8zM160.074 240.056a7.964 7.964 0 0 1-5.03-1.79 7.98 7.98 0 0 1-1.172-11.248l64.846-79.982a7.97 7.97 0 0 1 6.202-2.96H800.8c2.454 0 4.766 1.124 6.282 3.046l63.126 79.984a8 8 0 0 1-12.56 9.904l-60.72-76.938H228.73l-62.44 77.024a7.99 7.99 0 0 1-6.216 2.96zM192.066 304.042c-22.058 0-39.992-17.942-39.992-39.992 0-4.42 3.578-7.998 8-7.998s8 3.578 8 7.998c0 13.232 10.762 23.996 23.994 23.996s23.996-10.764 23.996-23.996a7.994 7.994 0 0 1 8-7.998 7.994 7.994 0 0 1 7.998 7.998c-0.004 22.052-17.952 39.992-39.996 39.992z" fill="" /><path d="M256.052 304.042c-22.056 0-39.992-17.942-39.992-39.992a7.994 7.994 0 0 1 8-7.998 7.994 7.994 0 0 1 7.998 7.998c0 13.232 10.764 23.996 23.994 23.996 13.232 0 23.996-10.764 23.996-23.996 0-4.42 3.578-7.998 7.998-7.998s7.998 3.578 7.998 7.998c0 22.052-17.948 39.992-39.992 39.992z" fill="" /><path d="M320.04 304.042c-22.058 0-39.992-17.942-39.992-39.992 0-4.42 3.578-7.998 7.998-7.998s7.998 3.578 7.998 7.998c0 13.232 10.764 23.996 23.996 23.996s23.996-10.764 23.996-23.996a7.994 7.994 0 0 1 7.998-7.998 7.994 7.994 0 0 1 7.998 7.998c0 22.052-17.95 39.992-39.992 39.992z" fill="" /><path d="M384.028 304.042c-22.058 0-39.992-17.942-39.992-39.992a7.994 7.994 0 0 1 7.998-7.998 7.994 7.994 0 0 1 7.998 7.998c0 13.232 10.764 23.996 23.996 23.996 13.23 0 23.994-10.764 23.994-23.996a7.994 7.994 0 0 1 7.998-7.998c4.422 0 8 3.578 8 7.998-0.002 22.052-17.95 39.992-39.992 39.992z" fill="" /><path d="M448.014 304.042c-22.058 0-39.992-17.942-39.992-39.992a7.994 7.994 0 0 1 7.998-7.998c4.422 0 8 3.578 8 7.998 0 13.232 10.762 23.996 23.996 23.996 13.232 0 23.996-10.764 23.996-23.996 0-4.42 3.578-7.998 7.998-7.998s8 3.578 8 7.998c-0.004 22.052-17.954 39.992-39.996 39.992z" fill="" /><path d="M512 304.042c-22.058 0-39.992-17.942-39.992-39.992 0-4.42 3.578-7.998 7.998-7.998s8 3.578 8 7.998c0 13.232 10.762 23.996 23.994 23.996s23.994-10.764 23.994-23.996a7.994 7.994 0 0 1 8-7.998 7.994 7.994 0 0 1 7.998 7.998c0 22.052-17.934 39.992-39.992 39.992z" fill="" /><path d="M575.986 304.042c-22.042 0-39.992-17.942-39.992-39.992a7.994 7.994 0 0 1 8-7.998 7.994 7.994 0 0 1 7.998 7.998c0 13.232 10.764 23.996 23.994 23.996 13.232 0 23.996-10.764 23.996-23.996 0-4.42 3.578-7.998 7.998-7.998s7.998 3.578 7.998 7.998c0 22.052-17.934 39.992-39.992 39.992z" fill="" /><path d="M639.974 304.042c-22.042 0-39.992-17.942-39.992-39.992 0-4.42 3.578-7.998 7.998-7.998s7.998 3.578 7.998 7.998c0 13.232 10.764 23.996 23.996 23.996 13.23 0 23.994-10.764 23.994-23.996a7.994 7.994 0 0 1 7.998-7.998 7.994 7.994 0 0 1 7.998 7.998c0 22.052-17.932 39.992-39.99 39.992z" fill="" /><path d="M703.96 304.042c-22.042 0-39.992-17.942-39.992-39.992a7.994 7.994 0 0 1 7.998-7.998 7.994 7.994 0 0 1 7.998 7.998c0 13.232 10.764 23.996 23.996 23.996 13.23 0 23.994-10.764 23.994-23.996a7.994 7.994 0 0 1 8-7.998 7.992 7.992 0 0 1 7.996 7.998c0.002 22.052-17.932 39.992-39.99 39.992z" fill="" /><path d="M767.948 304.042c-22.042 0-39.992-17.942-39.992-39.992a7.994 7.994 0 0 1 8-7.998 7.992 7.992 0 0 1 7.996 7.998c0 13.232 10.766 23.996 23.996 23.996s23.996-10.764 23.996-23.996a7.992 7.992 0 0 1 7.996-7.998c4.422 0 8 3.578 8 7.998 0 22.052-17.934 39.992-39.992 39.992z" fill="" /><path d="M831.934 304.042c-22.042 0-39.99-17.942-39.99-39.992a7.992 7.992 0 0 1 7.996-7.998c4.422 0 8 3.578 8 7.998 0 13.232 10.762 23.996 23.994 23.996s23.996-10.764 23.996-23.996a7.994 7.994 0 0 1 7.998-7.998 7.994 7.994 0 0 1 7.998 7.998c0 22.052-17.934 39.992-39.992 39.992z" fill="" /><path d="M160.074 272.048a8 8 0 0 1-8-7.998v-31.994a8 8 0 1 1 16 0v31.994a8.006 8.006 0 0 1-8 7.998z" fill="" /><path d="M832.808 240.056H192.942c-4.42 0-7.998-3.578-7.998-8s3.578-7.998 7.998-7.998h639.868c4.422 0 7.998 3.578 7.998 7.998s-3.578 8-8 8z" fill="" /><path d="M236.588 224.06c-1.64 0-3.28-0.5-4.702-1.54a7.976 7.976 0 0 1-1.75-11.168l34.992-47.99a7.968 7.968 0 0 1 11.17-1.75 7.992 7.992 0 0 1 1.75 11.17l-34.992 47.99a7.986 7.986 0 0 1-6.468 3.288zM297.326 224.06a7.994 7.994 0 0 1-6.92-12.012l27.838-47.99a7.986 7.986 0 0 1 10.934-2.906 7.996 7.996 0 0 1 2.906 10.936l-27.838 47.99a8.004 8.004 0 0 1-6.92 3.982zM358.75 224.06a7.998 7.998 0 0 1-7.374-11.098l20.168-47.99c1.718-4.086 6.42-5.96 10.466-4.274a8.004 8.004 0 0 1 4.28 10.474l-20.166 47.99a8.014 8.014 0 0 1-7.374 4.898zM420.192 224.06a7.998 7.998 0 0 1-7.748-10.014l12.482-47.99a7.984 7.984 0 0 1 9.762-5.726 8 8 0 0 1 5.718 9.756l-12.482 47.99a7.99 7.99 0 0 1-7.732 5.984zM481.616 224.06a8.004 8.004 0 0 1-7.968-8.796l4.812-47.99c0.438-4.39 4.31-7.538 8.748-7.164a8.004 8.004 0 0 1 7.17 8.756l-4.812 47.99a8.004 8.004 0 0 1-7.95 7.204zM543.744 224.06a7.982 7.982 0 0 1-7.966-7.436l-3.39-47.99a7.986 7.986 0 0 1 7.404-8.538c4.328-0.446 8.232 3.008 8.544 7.414l3.39 47.99a7.996 7.996 0 0 1-7.982 8.56zM604.45 224.06a8.016 8.016 0 0 1-7.81-6.28l-10.544-48.006a8.008 8.008 0 0 1 6.094-9.53c4.264-0.968 8.576 1.774 9.53 6.092l10.542 48.006a7.992 7.992 0 0 1-7.812 9.718zM666.594 224.06a8.006 8.006 0 0 1-7.452-5.092l-18.746-48.006a7.998 7.998 0 0 1 14.902-5.812l18.746 48.004a7.992 7.992 0 0 1-7.45 10.906zM728.048 224.06a7.98 7.98 0 0 1-7.014-4.14l-26.432-48.006a8 8 0 0 1 3.14-10.866 8.018 8.018 0 0 1 10.872 3.148l26.434 48.006a8 8 0 0 1-7 11.858zM789.458 224.06a7.988 7.988 0 0 1-6.532-3.366l-34.102-48.006a7.992 7.992 0 0 1 1.89-11.154c3.594-2.578 8.592-1.71 11.154 1.89l34.102 48.006a8.02 8.02 0 0 1-1.89 11.154c-1.404 1-3.028 1.476-4.622 1.476z" fill="" /><path d="M863.928 272.048a7.992 7.992 0 0 1-7.998-7.998v-31.994a7.994 7.994 0 0 1 7.998-7.998 7.994 7.994 0 0 1 7.998 7.998v31.994a7.994 7.994 0 0 1-7.998 7.998z" fill="" /><path d="M719.958 623.976h-175.962c-4.422 0-8-3.578-8-7.998V360.032a7.994 7.994 0 0 1 8-7.998h175.962a7.994 7.994 0 0 1 7.998 7.998V615.98a7.996 7.996 0 0 1-7.998 7.996z m-167.966-15.996h159.966V368.03h-159.966V607.98z" fill="" /><path d="M671.966 591.984h-79.982c-13.232 0-23.996-10.766-23.996-23.996 0-13.232 10.764-23.996 23.996-23.996h79.982c13.232 0 23.996 10.764 23.996 23.996 0 13.23-10.762 23.996-23.996 23.996z m-79.982-31.994c-4.406 0-7.998 3.592-7.998 7.998s3.592 7.998 7.998 7.998h79.982c4.422 0 7.998-3.592 7.998-7.998s-3.576-7.998-7.998-7.998h-79.982zM719.958 496.002h-175.962c-4.422 0-8-3.578-8-7.998s3.578-8 8-8h175.962c4.42 0 7.998 3.578 7.998 8s-3.58 7.998-7.998 7.998z" fill="" /><path d="M719.972 496.002a7.946 7.946 0 0 1-6.404-3.202l-41.602-55.45L630.38 492.8c-2.638 3.546-7.652 4.25-11.2 1.602a7.99 7.99 0 0 1-1.594-11.194l47.99-63.986c3.014-4.032 9.78-4.032 12.794 0l47.988 63.986a7.98 7.98 0 0 1-1.61 11.194c-1.432 1.078-3.104 1.6-4.776 1.6z" fill="" /><path d="M575.986 496.002a8 8 0 0 1-4.998-1.75 8.024 8.024 0 0 1-1.25-11.248l31.994-39.992a7.996 7.996 0 0 1 12.496 0.006l23.746 29.698a7.986 7.986 0 0 1-1.25 11.24 8.008 8.008 0 0 1-11.248-1.258l-17.496-21.886-25.744 32.19a7.994 7.994 0 0 1-6.25 3zM591.984 432.016c-13.232 0-23.996-10.764-23.996-23.996s10.764-23.996 23.996-23.996c13.23 0 23.994 10.762 23.994 23.996 0 13.232-10.764 23.996-23.994 23.996z m0-31.992c-4.406 0-7.998 3.584-7.998 7.998s3.592 7.998 7.998 7.998a8 8 0 0 0 0-15.996zM623.976 527.996h-47.99c-4.42 0-7.998-3.578-7.998-7.998s3.578-7.998 7.998-7.998h47.99c4.422 0 7.998 3.578 7.998 7.998s-3.576 7.998-7.998 7.998zM687.962 527.996h-23.994c-4.42 0-7.998-3.578-7.998-7.998s3.578-7.998 7.998-7.998h23.994c4.422 0 8 3.578 8 7.998s-3.578 7.998-8 7.998zM607.98 591.984a7.994 7.994 0 0 1-7.998-8v-31.992c0-4.422 3.578-8 7.998-8s7.998 3.578 7.998 8v31.992c0 4.422-3.578 8-7.998 8z" fill="" /><path d="M480.006 623.976h-175.964a7.994 7.994 0 0 1-7.998-7.998V360.032a7.994 7.994 0 0 1 7.998-7.998h175.964c4.42 0 8 3.578 8 7.998V615.98a7.994 7.994 0 0 1-8 7.996z m-167.964-15.996h159.968V368.03h-159.968V607.98z" fill="" /><path d="M432.018 591.984h-79.984c-13.232 0-23.994-10.766-23.994-23.996 0-13.232 10.762-23.996 23.994-23.996h79.984c13.23 0 23.994 10.764 23.994 23.996 0 13.23-10.764 23.996-23.994 23.996z m-79.984-31.994c-4.406 0-7.998 3.592-7.998 7.998s3.592 7.998 7.998 7.998h79.984c4.42 0 7.998-3.592 7.998-7.998s-3.578-7.998-7.998-7.998h-79.984zM480.006 496.002h-175.964c-4.42 0-7.998-3.578-7.998-7.998s3.578-8 7.998-8h175.964c4.42 0 8 3.578 8 8s-3.578 7.998-8 7.998z" fill="" /><path d="M480.022 496.002a7.956 7.956 0 0 1-6.406-3.202l-41.6-55.45-41.584 55.45c-2.64 3.546-7.654 4.25-11.202 1.602a7.992 7.992 0 0 1-1.592-11.194l47.99-63.986c3.016-4.032 9.78-4.032 12.794 0l47.99 63.986a7.98 7.98 0 0 1-1.61 11.194c-1.436 1.078-3.108 1.6-4.78 1.6z" fill="" /><path d="M336.038 496.002a8.008 8.008 0 0 1-5-1.75 8.028 8.028 0 0 1-1.25-11.248l31.994-39.992a8.002 8.002 0 0 1 12.5 0.006l23.744 29.698a7.986 7.986 0 0 1-1.25 11.24 8.004 8.004 0 0 1-11.248-1.258l-17.496-21.886-25.746 32.19a7.994 7.994 0 0 1-6.248 3zM352.034 432.016c-13.232 0-23.994-10.764-23.994-23.996s10.762-23.996 23.994-23.996 23.996 10.762 23.996 23.996c-0.002 13.232-10.764 23.996-23.996 23.996z m0-31.992c-4.406 0-7.998 3.584-7.998 7.998s3.592 7.998 7.998 7.998a7.996 7.996 0 1 0 0-15.996zM384.028 527.996h-47.99c-4.422 0-7.998-3.578-7.998-7.998s3.576-7.998 7.998-7.998h47.99c4.42 0 7.998 3.578 7.998 7.998s-3.578 7.998-7.998 7.998zM448.014 527.996h-23.996c-4.42 0-8-3.578-8-7.998s3.578-7.998 8-7.998h23.996c4.42 0 7.998 3.578 7.998 7.998s-3.578 7.998-7.998 7.998zM368.03 591.984c-4.42 0-8-3.578-8-8v-31.992c0-4.422 3.578-8 8-8s7.998 3.578 7.998 8v31.992c0 4.422-3.576 8-7.998 8z" fill="" /><path d="M719.958 847.93a7.994 7.994 0 0 1-7.998-7.998v-167.964h-159.966v167.964a7.994 7.994 0 0 1-7.998 7.998c-4.422 0-8-3.576-8-7.998v-175.962c0-4.422 3.578-8 8-8h175.962a7.994 7.994 0 0 1 7.998 8v175.962a7.994 7.994 0 0 1-7.998 7.998z" fill="" /><path d="M719.958 799.94h-175.962c-4.422 0-8-3.576-8-7.998a7.994 7.994 0 0 1 8-7.998h175.962a7.994 7.994 0 0 1 7.998 7.998 7.994 7.994 0 0 1-7.998 7.998z" fill="" /><path d="M719.972 799.94a7.924 7.924 0 0 1-6.404-3.202l-41.602-55.442-41.586 55.442a7.988 7.988 0 0 1-11.2 1.61 8 8 0 0 1-1.594-11.202l47.99-63.986c3.014-4.032 9.78-4.032 12.794 0l47.988 63.986a8 8 0 1 1-6.386 12.794z" fill="" /><path d="M575.986 799.94c-1.75 0-3.514-0.56-4.998-1.748a8.024 8.024 0 0 1-1.25-11.248l31.994-39.992a8.008 8.008 0 0 1 12.496 0l23.746 29.712a7.976 7.976 0 0 1-1.25 11.23c-3.438 2.766-8.482 2.188-11.248-1.264l-17.496-21.872-25.744 32.182a7.994 7.994 0 0 1-6.25 3zM591.984 735.954c-13.232 0-23.996-10.764-23.996-23.994 0-13.232 10.764-23.996 23.996-23.996 13.23 0 23.994 10.764 23.994 23.996 0 13.23-10.764 23.994-23.994 23.994z m0-31.994a8.012 8.012 0 0 0-7.998 7.998 8.014 8.014 0 0 0 7.998 7.998 8.004 8.004 0 0 0 7.998-7.998 8.004 8.004 0 0 0-7.998-7.998zM623.976 831.934h-47.99a7.994 7.994 0 0 1-7.998-7.998 7.994 7.994 0 0 1 7.998-7.998h47.99a7.992 7.992 0 0 1 7.998 7.998 7.994 7.994 0 0 1-7.998 7.998zM687.962 831.934h-23.994a7.994 7.994 0 0 1-7.998-7.998 7.994 7.994 0 0 1 7.998-7.998h23.994c4.422 0 8 3.576 8 7.998a7.994 7.994 0 0 1-8 7.998z" fill="" /><path d="M480.006 847.93a7.994 7.994 0 0 1-7.998-7.998v-167.964H312.04v167.964a7.992 7.992 0 0 1-7.998 7.998 7.994 7.994 0 0 1-7.998-7.998v-175.962c0-4.422 3.578-8 7.998-8h175.964c4.42 0 8 3.578 8 8v175.962a7.994 7.994 0 0 1-8 7.998z" fill="" /><path d="M480.006 799.94h-175.964a7.994 7.994 0 0 1-7.998-7.998 7.994 7.994 0 0 1 7.998-7.998h175.964c4.42 0 8 3.578 8 7.998a7.994 7.994 0 0 1-8 7.998z" fill="" /><path d="M480.022 799.94a7.932 7.932 0 0 1-6.406-3.202l-41.6-55.442-41.586 55.442a7.99 7.99 0 0 1-11.202 1.61 8 8 0 0 1-1.592-11.202l47.99-63.986c3.016-4.032 9.78-4.032 12.794 0l47.99 63.986a7.99 7.99 0 0 1-1.61 11.202 8.01 8.01 0 0 1-4.778 1.592z" fill="" /><path d="M336.038 799.94c-1.75 0-3.516-0.56-5-1.748a8.028 8.028 0 0 1-1.25-11.248l31.994-39.992a8.016 8.016 0 0 1 12.5 0l23.744 29.712a7.976 7.976 0 0 1-1.25 11.23 7.998 7.998 0 0 1-11.248-1.264l-17.496-21.872-25.746 32.182a7.994 7.994 0 0 1-6.248 3zM352.034 735.954c-13.232 0-23.994-10.764-23.994-23.994 0-13.232 10.762-23.996 23.994-23.996s23.996 10.764 23.996 23.996c-0.002 13.23-10.764 23.994-23.996 23.994z m0-31.994a8.012 8.012 0 0 0-7.998 7.998 8.014 8.014 0 0 0 7.998 7.998 8.004 8.004 0 0 0 7.998-7.998 8.002 8.002 0 0 0-7.998-7.998zM384.028 831.934h-47.99a7.994 7.994 0 0 1-7.998-7.998 7.992 7.992 0 0 1 7.998-7.998h47.99a7.994 7.994 0 0 1 7.998 7.998 7.994 7.994 0 0 1-7.998 7.998zM448.014 831.934h-23.996c-4.42 0-8-3.578-8-7.998a7.994 7.994 0 0 1 8-7.998h23.996a7.994 7.994 0 0 1 7.998 7.998 7.994 7.994 0 0 1-7.998 7.998z" fill="" /><path d="M224.06 128.08c-4.422 0-8-3.578-8-8V72.09a7.994 7.994 0 0 1 8-7.998 7.994 7.994 0 0 1 7.998 7.998V120.08c0 4.422-3.578 8-7.998 8z" fill="" /><path d="M799.94 128.08a7.994 7.994 0 0 1-7.996-8V72.09a7.992 7.992 0 0 1 7.996-7.998c4.422 0 8 3.578 8 7.998V120.08c0 4.422-3.578 8-8 8z" fill="" /><path d="M767.948 112.082H256.052a7.994 7.994 0 0 1-7.998-7.998 7.994 7.994 0 0 1 7.998-7.998h511.894a7.994 7.994 0 0 1 7.998 7.998 7.988 7.988 0 0 1-7.996 7.998z" fill="" /></svg>