<?xml version="1.0" encoding="UTF-8"?>
<svg version="1.1" xmlns="http://www.w3.org/2000/svg" width="384" height="384">
<path d="M0 0 C1.54051193 -0.00576172 1.54051193 -0.00576172 3.1121453 -0.01163983 C4.80982982 -0.01034011 4.80982982 -0.01034011 6.54181099 -0.00901413 C7.74141083 -0.01198525 8.94101067 -0.01495637 10.17696202 -0.01801753 C13.5126094 -0.02520556 16.84820529 -0.02787745 20.18385673 -0.028615 C23.77903112 -0.03046444 27.37419432 -0.03801117 30.96936226 -0.04475021 C38.83290436 -0.05833795 46.69644137 -0.06435879 54.55999327 -0.06876087 C59.46825169 -0.07152225 64.37650815 -0.07575938 69.28476524 -0.08026505 C82.86956534 -0.09245771 96.45436386 -0.10275741 110.03916931 -0.10614014 C110.90878385 -0.1063597 111.77839838 -0.10657927 112.67436487 -0.10680549 C113.54607798 -0.10702377 114.4177911 -0.10724204 115.31591976 -0.10746694 C117.08238912 -0.1079104 118.84885848 -0.10835697 120.61532784 -0.10880661 C121.92967686 -0.10913875 121.92967686 -0.10913875 123.2705784 -0.10947761 C137.47399216 -0.11342704 151.67735466 -0.13088547 165.88074861 -0.15416613 C180.45689974 -0.17786532 195.03302512 -0.19034131 209.60919583 -0.19150805 C217.79574571 -0.19242556 225.98222879 -0.19819697 234.1687603 -0.21632767 C241.13862058 -0.23170927 248.10839342 -0.23686059 255.07826744 -0.22858956 C258.63534168 -0.22467629 262.19223969 -0.22564545 265.74929237 -0.23964691 C269.60322285 -0.25467848 273.45690378 -0.24653946 277.31085396 -0.23606491 C278.43818219 -0.24412132 279.56551042 -0.25217772 280.72700012 -0.26047826 C281.75922356 -0.25388841 282.79144701 -0.24729857 283.85494995 -0.24050903 C284.74452735 -0.24110612 285.63410475 -0.24170321 286.55063903 -0.24231839 C289.6599026 0.22201451 291.51736631 1.29652467 294.05331612 3.13142776 C296.45761127 6.7378705 296.20399457 8.05630298 296.01034737 12.31502151 C295.46737092 37.20247036 301.54219219 58.73816487 309.44626045 82.20878983 C312.13490171 90.72412705 312.21973493 99.10510925 308.22128487 107.19392776 C307.05331612 109.13142776 307.05331612 109.13142776 305.50160408 110.74052143 C303.42384343 114.17059281 303.65885706 117.43297036 303.71273994 121.32342911 C303.71229337 122.15636366 303.71184679 122.98929821 303.71138668 123.8474732 C303.71347269 126.64279476 303.73700943 129.43752721 303.76034737 132.23274612 C303.76610393 134.23504682 303.77049578 136.23735183 303.77362251 138.23965836 C303.78311245 142.55368331 303.80192832 146.86753257 303.82782173 151.18148994 C303.86833631 158.00077255 303.88606022 164.81999638 303.90023994 171.63937759 C303.93640056 187.3474785 304.00255747 203.05542682 304.06892586 218.76342392 C304.12943363 233.15591415 304.18365194 247.54835322 304.21357059 261.94094378 C304.22853419 268.72198423 304.25813772 275.50275685 304.29886055 282.28368938 C304.32121646 286.50017763 304.33118176 290.71662885 304.33775902 294.93316841 C304.34338206 296.89035118 304.35419892 298.84752687 304.37055779 300.80464935 C304.39217003 303.47408656 304.39532087 306.14293304 304.39389229 308.81244278 C304.40467717 309.58890355 304.41546206 310.36536431 304.42657375 311.16535419 C304.40082441 315.65005283 303.99928999 318.66927197 301.05331612 322.13142776 C297.47401062 323.88845124 294.59089728 324.38222432 290.62627602 324.38590336 C289.00141454 324.39465165 289.00141454 324.39465165 287.34372759 324.40357667 C285.56723526 324.39790769 285.56723526 324.39790769 283.7548542 324.39212418 C282.49229223 324.39594972 281.22973025 324.39977527 279.92890882 324.40371674 C276.42674109 324.41400982 272.92467558 324.41181162 269.42249942 324.40753615 C265.64466732 324.40507133 261.86686 324.41407998 258.08903694 324.42157364 C250.68918742 324.43432893 243.28937418 324.43611334 235.88951552 324.43377338 C229.8761337 324.43199119 223.8627629 324.43373772 217.8493824 324.43799782 C216.56618406 324.4388906 216.56618406 324.4388906 215.25706252 324.43980142 C213.51926585 324.44101315 211.78146917 324.44222729 210.0436725 324.4434438 C193.74376642 324.45432228 177.44388102 324.45215523 161.14397377 324.44605895 C146.22613361 324.44088804 131.30835872 324.45214928 116.39053148 324.47115717 C101.07754482 324.49051923 85.76458905 324.49879454 70.45159006 324.49503392 C61.85259828 324.49311958 53.25366207 324.49563215 44.65468025 324.50974846 C37.33535448 324.52164236 30.01611849 324.5230895 22.69679153 324.51095829 C18.96148746 324.5050559 15.2263478 324.50400755 11.49105453 324.51596069 C7.44449776 324.52875962 3.39833485 324.51838768 -0.64822197 324.50564957 C-1.83255019 324.51302385 -3.0168784 324.52039814 -4.23709536 324.52799588 C-5.32033634 324.52078934 -6.40357732 324.5135828 -7.51964378 324.50615788 C-8.45370347 324.50621289 -9.38776317 324.50626791 -10.3501277 324.50632459 C-14.09334957 323.9658695 -16.91968078 322.45862099 -19.24667549 319.45145226 C-20.2910836 315.98999034 -20.19284286 312.59054326 -20.14681816 309.01103592 C-20.14429362 308.18571275 -20.14176907 307.36038958 -20.13916802 306.51005661 C-20.12840004 303.7403208 -20.10334945 300.97089475 -20.07851982 298.20125198 C-20.06813442 296.21691731 -20.05871795 294.23257736 -20.05019951 292.2482338 C-20.03030593 287.97190331 -20.0046018 283.69566019 -19.97475243 279.41938782 C-19.92864173 272.65336072 -19.90202216 265.8873456 -19.87936211 259.12120438 C-19.81248486 239.87966733 -19.72938016 220.63830343 -19.60391045 201.39705276 C-19.53479278 190.77249945 -19.4872199 180.14807551 -19.46349359 169.52332127 C-19.44996719 163.90237433 -19.42511871 158.28197571 -19.37343407 152.66123962 C-19.32478597 147.37029866 -19.30414557 142.07998162 -19.30462456 136.78882408 C-19.29979582 134.85144676 -19.28470753 132.91406242 -19.25836754 130.97685814 C-18.88067399 117.71080927 -18.88067399 117.71080927 -24.5593586 106.01674461 C-28.24708513 101.00527901 -27.64556998 94.00382005 -26.94668388 88.13142776 C-25.35088716 81.53451354 -23.11115386 75.10122644 -21.0196209 68.64891434 C-15.35307456 51.02580121 -11.34426793 34.79835607 -11.94302177 16.22468948 C-11.98290215 14.95254593 -12.02278252 13.68040237 -12.06387138 12.36970901 C-12.13203056 11.27698685 -12.20018974 10.18426468 -12.27041435 9.05842972 C-11.85592563 5.31083904 -10.58841257 3.76398583 -7.94668388 1.13142776 C-4.99185965 0.14648636 -3.0804373 0.00431796 0 0 Z M4.05331612 17.13142776 C4.05331612 21.75142776 4.05331612 26.37142776 4.05331612 31.13142776 C95.13331612 31.13142776 186.21331612 31.13142776 280.05331612 31.13142776 C280.05331612 26.51142776 280.05331612 21.89142776 280.05331612 17.13142776 C188.97331612 17.13142776 97.89331612 17.13142776 4.05331612 17.13142776 Z M2.05331612 47.13142776 C-8.09137053 72.50212765 -8.09137053 72.50212765 -9.94668388 100.13142776 C-7.27774856 104.85339027 -4.10036071 106.61067067 1.05331612 108.13142776 C5.93438008 108.50290697 9.91512395 107.68065551 13.92831612 104.81892776 C17.76446358 101.19491749 18.45997572 96.89361073 19.35019112 91.83845901 C20.09973019 88.95273357 20.63628846 87.83485678 23.05331612 86.13142776 C27.4203852 85.74151088 29.35845508 85.66818708 33.05331612 88.13142776 C33.82675362 90.77595901 33.82675362 90.77595901 34.42831612 93.94392776 C35.96259504 100.5898199 38.20745437 103.19106748 43.80331612 107.00642776 C48.20261295 108.52926129 51.60804855 108.52829136 56.05331612 107.13142776 C60.56148747 104.42481731 63.69984908 101.29921098 65.05331612 96.13142776 C65.29114815 95.1317598 65.29114815 95.1317598 65.53378487 94.11189651 C66.93972014 88.24502374 66.93972014 88.24502374 69.05331612 86.13142776 C72.78557963 85.71673182 75.13001903 85.55748633 78.36581612 87.56892776 C80.40124734 90.65976778 80.87968948 93.35853074 81.58065987 96.95174026 C82.39326778 100.69913874 83.59463718 103.05461996 86.70956612 105.35408401 C91.12332384 107.93753348 94.81896248 108.73063478 99.87362862 107.87361526 C104.60562754 106.26236115 107.97173175 103.08858043 110.36581612 98.75642776 C110.77027363 97.21213546 111.16430156 95.66492797 111.53378487 94.11189651 C112.93972014 88.24502374 112.93972014 88.24502374 115.05331612 86.13142776 C118.78557963 85.71673182 121.13001903 85.55748633 124.36581612 87.56892776 C126.40124734 90.65976778 126.87968948 93.35853074 127.58065987 96.95174026 C128.39326778 100.69913874 129.59463718 103.05461996 132.70956612 105.35408401 C137.26046746 108.01780603 140.83285922 108.58356618 146.01425362 107.66658401 C150.59363913 106.46471464 152.52194302 104.89053219 155.24081612 101.00642776 C157.10986531 97.48600981 157.90140484 93.96061604 158.56112862 90.04939651 C159.05331612 88.13142776 159.05331612 88.13142776 161.05331612 86.13142776 C168.16933822 85.45371137 168.16933822 85.45371137 170.92831612 87.56892776 C171.98002811 89.96449397 172.40813407 91.88962604 172.86581612 94.44392776 C173.88116075 99.57141815 176.16633469 102.70116666 180.05331612 106.13142776 C183.93171838 108.64714815 187.48602569 108.24905023 191.90878487 107.59627151 C196.57532202 106.58476346 198.51783881 104.89639535 201.24081612 101.00642776 C203.10986531 97.48600981 203.90140484 93.96061604 204.56112862 90.04939651 C205.05331612 88.13142776 205.05331612 88.13142776 207.05331612 86.13142776 C214.16933822 85.45371137 214.16933822 85.45371137 216.92831612 87.56892776 C217.98002811 89.96449397 218.40813407 91.88962604 218.86581612 94.44392776 C219.88116075 99.57141815 222.16633469 102.70116666 226.05331612 106.13142776 C229.88971684 108.61990391 233.45199578 108.30156482 237.83847237 107.66658401 C242.50945762 106.53796853 245.25512484 104.38572834 247.80331612 100.38142776 C248.77914934 97.84426139 249.45544802 95.57165447 250.05331612 92.94392776 C251.05331612 89.13142776 251.05331612 89.13142776 252.24081612 87.13142776 C255.22622626 85.48430493 257.7305488 85.77541698 261.05331612 86.13142776 C264.365107 88.47333703 264.62398583 91.08630222 265.30331612 94.94392776 C266.50040089 100.04079386 267.72088989 103.07544853 272.03378487 106.13533401 C276.45066556 108.31387285 280.49557347 108.82735067 285.26425362 107.52986526 C289.4958341 105.72082528 292.46962828 103.42564797 294.42283821 99.19656754 C296.2861103 93.09339204 293.59176164 85.73016592 291.83847237 79.80720901 C291.62267021 79.05731201 291.40686806 78.30741501 291.18452644 77.53479385 C290.50180009 75.1691257 289.80886669 72.80658916 289.11581612 70.44392776 C288.65488341 68.84971343 288.19459182 67.25531358 287.73495674 65.66072464 C285.93672151 59.44707368 284.09969376 53.27056069 282.05331612 47.13142776 C189.65331612 47.13142776 97.25331612 47.13142776 2.05331612 47.13142776 Z M26.05331612 114.13142776 C25.59183174 114.52974808 25.13034737 114.92806839 24.65487862 115.33845901 C15.78236171 122.54518717 8.77112676 123.13142776 -2.94668388 123.13142776 C-2.94668388 183.85142776 -2.94668388 244.57142776 -2.94668388 307.13142776 C6.62331612 307.13142776 16.19331612 307.13142776 26.05331612 307.13142776 C26.06789864 302.52802444 26.08248116 297.92462112 26.09750557 293.18172073 C26.14780144 277.98645652 26.21423702 262.79129472 26.28903103 247.59613228 C26.33399137 238.3816721 26.3734055 229.16725058 26.39975166 219.95271683 C26.4227298 211.92107171 26.45612578 203.88954895 26.50201768 195.85800087 C26.52595239 191.60557689 26.54467953 187.3532741 26.55093002 183.1007843 C26.55697977 179.09687946 26.57697549 175.09328473 26.60759163 171.08949471 C26.61637364 169.62138459 26.62009409 168.15323396 26.61832428 166.68509865 C26.61666825 164.67717224 26.63515813 162.66925962 26.6545887 160.66142654 C26.65919766 159.53868269 26.66380663 158.41593884 26.66855526 157.25917244 C27.11464542 153.63287805 28.11843144 151.22054895 30.05331612 148.13142776 C33.93519663 146.8374676 37.61074631 146.98679293 41.65655708 146.99098587 C42.54580694 146.98801475 43.4350568 146.98504363 44.35125363 146.98198247 C47.34293363 146.97328305 50.33457367 146.97178618 53.32626534 146.97029495 C55.46635206 146.96566771 57.60643797 146.96064317 59.7465229 146.95524979 C65.56880903 146.94211591 71.39108362 146.93567905 77.21338224 146.93123913 C80.84856732 146.92831037 84.48374924 146.92420597 88.11893272 146.91973495 C99.48589561 146.90605825 110.85285127 146.89639209 122.21982181 146.89253306 C135.35406487 146.88804988 148.48820398 146.87049059 161.62241542 146.84153247 C171.76684594 146.81994019 181.91124716 146.80983012 192.05570042 146.80849195 C198.11839103 146.80744228 204.18098396 146.80149999 210.24365044 146.78367233 C215.9448668 146.7672338 221.6459116 146.76501563 227.34714317 146.77381134 C229.44137467 146.77458394 231.53561524 146.77020975 233.62982368 146.76035309 C236.4854579 146.74769926 239.34047843 146.75347463 242.19610786 146.76393509 C243.44353211 146.75185048 243.44353211 146.75185048 244.71615684 146.73952174 C249.25990751 146.77853566 252.45372733 147.03693416 256.05331612 150.13142776 C257.49692518 153.35892017 257.19149241 156.92786785 257.2115345 160.42091751 C257.22621773 162.36021385 257.22621773 162.36021385 257.24119759 164.3386879 C257.24710142 165.7692753 257.25291189 167.19986308 257.25863838 168.6304512 C257.26821962 170.13841392 257.27822985 171.64637396 257.28863716 173.15433121 C257.31566568 177.24692192 257.33668636 181.33952415 257.35663915 185.43215466 C257.37851135 189.70963957 257.40589401 193.98708909 257.43269539 198.26454544 C257.48260557 206.36402458 257.52755062 214.46352339 257.57071775 222.56304097 C257.62010443 231.78426337 257.67501726 241.00545027 257.73039734 250.22663832 C257.84419169 269.19486997 257.95030677 288.16313427 258.05331612 307.13142776 C267.62331612 307.13142776 277.19331612 307.13142776 287.05331612 307.13142776 C287.05331612 246.41142776 287.05331612 185.69142776 287.05331612 123.13142776 C283.09331612 123.13142776 279.13331612 123.13142776 275.05331612 123.13142776 C268.29716395 121.72846809 262.9768675 118.92191019 258.05331612 114.13142776 C255.30449041 115.44502589 252.8228463 116.92397756 250.30331612 118.63142776 C243.78680103 122.71478934 236.69721439 124.12685503 229.05331612 123.13142776 C222.29991606 121.39134558 217.05668878 118.99957414 212.05331612 114.13142776 C209.30449041 115.44502589 206.8228463 116.92397756 204.30331612 118.63142776 C197.78680103 122.71478934 190.69721439 124.12685503 183.05331612 123.13142776 C176.29991606 121.39134558 171.05668878 118.99957414 166.05331612 114.13142776 C163.30449041 115.44502589 160.8228463 116.92397756 158.30331612 118.63142776 C151.78680103 122.71478934 144.69721439 124.12685503 137.05331612 123.13142776 C130.29991606 121.39134558 125.05668878 118.99957414 120.05331612 114.13142776 C117.30449041 115.44502589 114.8228463 116.92397756 112.30331612 118.63142776 C105.78680103 122.71478934 98.69721439 124.12685503 91.05331612 123.13142776 C84.29991606 121.39134558 79.05668878 118.99957414 74.05331612 114.13142776 C71.20719887 115.51915084 68.47605938 117.0378935 65.74081612 118.63142776 C58.33260886 122.72829931 51.03584085 124.48614824 42.69003487 122.59627151 C37.90748614 121.12533636 34.13245687 119.07220366 30.05331612 116.13142776 C28.72917229 115.44669033 27.39736147 114.77622564 26.05331612 114.13142776 Z M43.05331612 162.13142776 C43.05331612 209.98142776 43.05331612 257.83142776 43.05331612 307.13142776 C73.08331612 307.13142776 103.11331612 307.13142776 134.05331612 307.13142776 C134.05331612 259.28142776 134.05331612 211.43142776 134.05331612 162.13142776 C104.02331612 162.13142776 73.99331612 162.13142776 43.05331612 162.13142776 Z M150.05331612 162.13142776 C150.05331612 209.98142776 150.05331612 257.83142776 150.05331612 307.13142776 C180.08331612 307.13142776 210.11331612 307.13142776 241.05331612 307.13142776 C241.05331612 259.28142776 241.05331612 211.43142776 241.05331612 162.13142776 C211.02331612 162.13142776 180.99331612 162.13142776 150.05331612 162.13142776 Z " fill="#000000" transform="translate(49.94668388366699,29.868572235107422)"/>
<path d="M0 0 C3.66900829 2.63211465 4.84009531 4.08854326 5.625 8.5625 C5 12 5 12 2.875 14.4375 C-0.47831721 16.25995501 -2.23946276 16.56008001 -6 16 C-8.3125 14.875 -8.3125 14.875 -10 13 C-11.01805969 9.65494674 -11.17142227 7.62854833 -10.25 4.25 C-7.78587921 -0.18541743 -4.72346335 -0.66128487 0 0 Z " fill="#000000" transform="translate(164,253)"/>
<path d="M0 0 C4.7693662 1.41314554 4.7693662 1.41314554 6.375 4 C7.24003734 7.12744268 7.65951633 9.14645102 6.625 12.25 C5.375 14 5.375 14 2.375 16 C-1.49838754 16.42255137 -3.74098609 16.56667558 -7.0625 14.4375 C-9.25521887 11.01685857 -9.25507693 8.99048721 -8.625 5 C-5.93921083 1.09339758 -4.80084596 0 0 0 Z " fill="#000000" transform="translate(223.625,253)"/>
</svg>
